<?xml version="1.0" encoding="UTF-8"?>
<svg id="_레이어_2" xmlns="http://www.w3.org/2000/svg" version="1.1" viewBox="0 0 180 180">
  <!-- Generator: Adobe Illustrator 29.4.0, SVG Export Plug-In . SVG Version: 2.1.0 Build 152)  -->
  <defs>
    <style>
      .st0 {
        fill: #fff;
      }
    </style>
  </defs>
  <rect x=".3" y=".3" width="179.4" height="179.4" rx="33" ry="33"/>
  <rect class="st0" x="12.2" y="12.3" width="155.6" height="136.1" rx="22.2" ry="22.2"/>
  <path d="M123.1,65h-18.3c-1.1-7.4-6.2-12-14.7-12s-12.9,3.6-12.9,8.7,6.1,8.6,21.6,12.1c18.3,4.1,24.5,13.8,24.5,26.6s-14.3,26.3-32,26.3-33.9-11.4-34.7-29.7h18.2c1,8.2,7.6,13.6,17.7,13.6s12.6-3.9,12.6-9.4-5.4-9.5-19.5-12.4c-17.2-3.5-26.6-11.1-26.6-27.2s14.2-24.6,32.1-24.6,31,11.6,31.8,27.9Z"/>
</svg>