<?xml version="1.0" encoding="utf-8" ?><svg xmlns="http://www.w3.org/2000/svg" xmlns:xlink="http://www.w3.org/1999/xlink" width="200" height="200" viewBox="0 0 200 200"><path transform="scale(0.390625 0.390625)" d="M349.064 459.385C249.656 507.155 125.121 468.529 66.6894 374.865C13.6775 289.889 22.505 177.622 91.521 103.746C132.619 59.7541 190.898 33.4871 250.984 31.3762C267.537 30.3767 277.63 48.2633 269.484 62.2944C266.188 67.9717 259.838 71.4935 255.173 75.9823C213.619 115.967 201.177 178.837 227.726 230.848C267.67 309.101 370.686 326.314 434.717 266.274C439.037 262.224 442.554 257.374 447.953 254.648C461.784 247.662 478.789 257.589 479.628 273.122C480.323 286.008 472.743 314.651 468.738 326.536C448.072 387.87 405.845 431.151 349.064 459.385ZM189.909 88.2657C152.784 102.265 118.858 133.95 99.7494 168.161C52.3455 253.031 81.4445 361.811 165.978 410.845C214.016 438.709 269.289 443.028 321.431 423.239C323.717 422.371 326.05 421.448 328.219 420.323C369.187 400.988 400.053 371.412 418.185 330.072C374.275 350.748 330.922 353.81 285.059 337.291C195.814 305.147 146.652 203.405 179.183 113.548C180.162 110.846 190.019 88.3877 189.999 88.3332L189.909 88.2657Z"/></svg>