<?xml version="1.0" encoding="UTF-8"?>
<svg id="_레이어_2" xmlns="http://www.w3.org/2000/svg" version="1.1" viewBox="0 0 171.8 182.6">
  <!-- Generator: Adobe Illustrator 29.4.0, SVG Export Plug-In . SVG Version: 2.1.0 Build 152)  -->
  <g id="_레이어_1-2">
    <g>
      <path d="M146.6,51.1c-3.1.5-5.6,2.6-6.5,5.5-.6,1.8-.8,4.7-.9,7.3,0,.7,0,1.4-.1,1.9-.8,10.2-1.4,20.8-1.9,30.9-.7,13.6-1.4,27.8-2.8,41.4-1.9,18.2-3.4,25.6-23.2,26.7-14,.8-28.5.4-41,0-1.3,0-2.8,0-4.3,0-7.9,0-17.7-.1-22.5-5-4.8-4.9-5.8-17.2-6.5-24.6l-.2-1.7c-1-10.9-1.5-22.2-2-33.2-.6-13.4-1.2-27.2-2.7-40.5-.2-1.9-.8-4.7-2.8-6.6h0c-3-2.8-7.5-3-10.9-.6-3.7,2.6-3.6,6.1-3.5,9.5v.6c1.4,12.8,2,26,2.7,38.7.7,13.8,1.4,28,3,41.7,3.2,27.4,13.8,37.6,40.5,38.9,7.5.4,16.1.6,24.7.6s17.2-.2,24.7-.6c37.7-1.9,39.4-23.4,41.7-53.2v-1.5c.4-3.6.7-7.2,1-10.9,1.5-18,3-36.6,3.4-53.8v-.7c.1-2.5.2-5.4-1.8-7.9-2-2.4-5-3.5-8.2-2.9h0Z"/>
      <path d="M170.1,31.1c-1.3-1.8-3.2-2.7-5.4-2.7-3.4,0-6.7,0-9.8.1-6.4.1-12.5.3-18.8-.2-7.9-.6-9.3-4.7-11.2-10.3-1-3.1-2.2-6.5-4.7-9.5-3.3-4-9.4-7.2-14.5-7.6-13.7-1.2-28.7-1.1-41.1.1-.2,0-.4,0-.5,0h0c-7.4,1.5-13.1,6-16.1,12.5-.8,1.8-1.3,4-1.8,6.2-1.1,5.3-2,8.5-5.3,8.5s-10.3,0-16.8,0c-6.5,0-13.2,0-17.5,0S0,32.5,0,36.6s2.3,8.2,6.7,8.2l158,.2c4.6,0,7.1-4.2,7.1-8.3s-.6-4.1-1.7-5.6h0ZM109.7,27.7c-.3.4-.7.6-1.2.6h-45.5c-.5,0-.9-.2-1.2-.6-.3-.4-.4-.9-.2-1.4l.3-1c1.4-4.6,2.2-7.4,7.9-7.8,4.7-.3,10.7-.5,16.6-.5s11.6.2,15.8.5c5.3.4,6.2,3.4,7.5,8l.2.8c.1.5,0,.9-.2,1.3Z"/>
    </g>
  </g>
</svg>