<?xml version="1.0" encoding="UTF-8"?>
<svg id="_레이어_1" xmlns="http://www.w3.org/2000/svg" version="1.1" viewBox="0 0 200 200">
  <!-- Generator: Adobe Illustrator 29.4.0, SVG Export Plug-In . SVG Version: 2.1.0 Build 152)  -->
  <defs>
    <style>
      .st0 {
        stroke: #000;
        stroke-miterlimit: 10;
        stroke-width: 2px;
      }
    </style>
  </defs>
  <path class="st0" d="M90.8,50c-1,.7-1.9,1.7-2.8,2.6l-5.7,5.7c-1.5,1.5-3.1,3.4-4.9,4.5-8.1,5-17.5-5.9-11.7-13.4,1.5-2,4.1-4.2,5.9-6l19.3-19.2c2.6-2.5,4.5-5.2,8.3-5.6,4.8-.7,8.1,3.8,11.1,6.8l19.8,19.7c1.4,1.4,3,2.8,4.3,4.4,5.9,7.4-2.8,17.7-11.2,13.5-3.8-1.9-9.9-9.9-14.1-13.1v68.4c0,7,1.3,15.1-8.3,16.5-4.7.2-9-3-9.7-7.7-.4-2.7-.2-5.7-.2-8.4V50h-.1Z"/>
  <path class="st0" d="M177.5,118.5h0c-4.5,0-8.2,3.4-8.2,7.6v41.6c0,1.4,0,2.9-.1,4.3-.8,6.9-9.4,5.7-14.6,5.7H44c-2.2,0-4.4.1-6.5,0-7.3-.6-6.7-7.2-6.7-12v-39.6c0-4.2-3.7-7.6-8.2-7.6h0c-4.5,0-8.2,3.4-8.2,7.6v42c0,1.9,0,3.7.2,5.6,1.2,9.4,9.8,17.8,20.1,18.9,2.5.3,5.2.1,7.8.1h116.1c2.3,0,4.6.2,6.8,0,9.8-1.1,18.7-8.7,20.3-17.8.3-1.7.2-3.4.2-5.2v-43.6c0-4.2-3.7-7.6-8.2-7.6h-.2Z"/>
</svg>