<?xml version="1.0" encoding="UTF-8"?>
<svg id="_레이어_2" data-name="레이어 2" xmlns="http://www.w3.org/2000/svg" viewBox="0 0 125.57 125.57">
  <defs>
    <style>
      .cls-1 {
        fill: #fff;
      }
    </style>
  </defs>
  <g id="_레이어_1-2" data-name="레이어 1">
    <g>
      <rect width="125.57" height="125.57" rx="23.12" ry="23.12"/>
      <rect class="cls-1" x="8.33" y="8.37" width="108.92" height="95.29" rx="15.51" ry="15.51"/>
      <path d="M85.92,45.31h-12.81c-.75-5.21-4.36-8.37-10.29-8.37s-9,2.5-9,6.09c0,4.48,4.29,6.02,15.13,8.44,12.81,2.86,17.18,9.69,17.18,18.65,0,11.45-10.02,18.42-22.42,18.42-13.7,0-23.72-8-24.26-20.77h12.75c.68,5.73,5.32,9.54,12.4,9.54,5.04,0,8.79-2.72,8.79-6.61,0-4.77-3.75-6.68-13.63-8.66-12.06-2.42-18.61-7.78-18.61-19.01s9.95-17.25,22.49-17.25,21.67,8.15,22.29,19.53Z"/>
    </g>
  </g>
</svg>