<?xml version="1.0" encoding="UTF-8"?>
<svg id="_레이어_1" data-name="레이어_1" xmlns="http://www.w3.org/2000/svg" version="1.1" viewBox="0 0 200 200">
  <!-- Generator: Adobe Illustrator 29.4.0, SVG Export Plug-In . SVG Version: 2.1.0 Build 152)  -->
  <path d="M178.4,130.1h-13.3c-4-14.7-17.4-25.6-33.4-25.6s-29.4,10.9-33.4,25.6H21.7c-5,0-9,4-9,9s4,9,9,9h76.6c4,14.7,17.4,25.6,33.4,25.6s29.4-10.9,33.4-25.6h13.3c5,0,9-4,9-9s-4-9-9-9ZM131.7,156.7c-9.8,0-17.7-7.9-17.7-17.7s7.9-17.7,17.7-17.7,17.7,7.9,17.7,17.7-7.9,17.7-17.7,17.7Z"/>
  <path d="M178.4,51.6h-76.6c-4-14.7-17.4-25.6-33.4-25.6s-29.4,10.8-33.4,25.6h-13.3c-5,0-9,4-9,9s4,9,9,9h13.3c4,14.8,17.4,25.6,33.4,25.6s29.5-10.9,33.4-25.6h76.6c5,0,9-4,9-9s-4-9-9-9ZM68.4,78.3c-9.8,0-17.7-7.9-17.7-17.7s7.9-17.7,17.7-17.7,17.7,7.9,17.7,17.7-7.9,17.7-17.7,17.7Z"/>
</svg>