<?xml version="1.0" encoding="UTF-8"?>
<svg id="_레이어_1" xmlns="http://www.w3.org/2000/svg" version="1.1" viewBox="0 0 200 200">
  <!-- Generator: Adobe Illustrator 29.4.0, SVG Export Plug-In . SVG Version: 2.1.0 Build 152)  -->
  <path d="M172.2,127.7h-12.2c-3.7-13.5-16-23.6-30.8-23.6s-27.1,10-30.8,23.6H27.9c-4.6,0-8.3,3.7-8.3,8.3s3.7,8.3,8.3,8.3h70.5c3.7,13.5,16,23.6,30.8,23.6s27.1-10,30.8-23.6h12.2c4.6,0,8.3-3.7,8.3-8.3s-3.7-8.3-8.3-8.3h0ZM129.2,152.2c-9,0-16.3-7.3-16.3-16.3s7.3-16.3,16.3-16.3,16.3,7.3,16.3,16.3-7.3,16.3-16.3,16.3Z"/>
  <path d="M172.2,55.4h-70.5c-3.7-13.5-16-23.6-30.8-23.6s-27.1,9.9-30.8,23.6h-12.2c-4.6,0-8.3,3.7-8.3,8.3s3.7,8.3,8.3,8.3h12.2c3.7,13.6,16,23.6,30.8,23.6s27.2-10,30.8-23.6h70.5c4.6,0,8.3-3.7,8.3-8.3s-3.7-8.3-8.3-8.3ZM70.9,80c-9,0-16.3-7.3-16.3-16.3s7.3-16.3,16.3-16.3,16.3,7.3,16.3,16.3-7.3,16.3-16.3,16.3Z"/>
</svg>