<?xml version="1.0" encoding="utf-8" ?><svg xmlns="http://www.w3.org/2000/svg" xmlns:xlink="http://www.w3.org/1999/xlink" width="200" height="200" viewBox="0 0 200 200"><path transform="scale(0.390625 0.390625)" d="M257.375 331.25C237.052 331.275 218.492 331.172 211.325 356.191C209.444 362.755 209.87 369.912 209.877 376.681L209.873 441.143C209.882 446.609 210.512 456.71 209.511 461.737C206.233 478.192 191.164 476.324 179.123 476.152C171.603 476.044 164.074 476.122 156.552 476.12L116.125 476.122C108.543 476.13 99.3747 476.881 92.0051 475.468C69.5617 471.164 51.5723 451.588 49.8666 428.649C49.4587 423.163 49.6097 417.555 49.6105 412.054L49.5922 235.427C49.4872 212.905 54.2213 202.18 71.8063 186.755L221.396 55.2844C230.293 47.5632 243.966 31.9023 255.209 31.0993C263.603 30.0278 270.099 37.4341 275.759 42.459L438.473 185.666C462.913 207.381 462.548 213.822 462.541 243.889L462.584 421.753C462.557 437.219 458.137 449.822 446.962 460.864C432.454 475.201 418.547 476.12 399.426 476.129L322.052 476.143C300.363 476.075 302.487 458.786 302.521 443.021L302.532 371.993C302.536 359.874 301.884 350.277 292.633 341.08C282.067 330.575 271.042 331.262 257.375 331.25ZM255.209 74.0483C250.49 75.1201 234.926 90.4962 230.571 94.3421L139.088 174.263C125.873 185.803 112.42 197.032 99.3549 208.745C82.8411 223.551 84.7441 220.899 84.7429 241.639L84.7545 403.277C84.7503 409.233 84.0916 423.142 85.2707 428.245C88.326 441.467 99.2305 441.231 109.538 441.154L175.004 441.13C175.178 434.707 175.005 428.244 175.005 421.815L175.011 382.981C175.011 371.785 173.964 359.968 176.598 349.008C183.392 320.735 208.658 299.02 237.731 296.862C244.184 296.383 250.895 296.747 257.375 296.75C264.109 296.737 271.002 296.41 277.703 297.137C307.786 300.4 333.044 325.147 337.111 355.121C337.803 360.217 337.757 365.375 337.756 370.507L337.75 441.13C354.75 441.317 371.77 441.117 388.773 441.121L403.03 441.162C414.795 441.222 427.115 439.021 427.278 423.684C427.472 405.437 427.288 387.155 427.258 368.905L427.258 233.585C427.229 218.925 425.4 220.345 414.171 210.57L274.169 87.58C270.358 84.2522 260.432 73.3923 255.209 74.0483Z"/></svg>