<?xml version="1.0" encoding="UTF-8"?>
<svg id="_레이어_1" xmlns="http://www.w3.org/2000/svg" version="1.1" viewBox="0 0 200 200">
  <!-- Generator: Adobe Illustrator 29.4.0, SVG Export Plug-In . SVG Version: 2.1.0 Build 152)  -->
  <defs>
    <style>
      .st0 {
        stroke: #fff;
        stroke-miterlimit: 10;
        stroke-width: 2px;
      }
    </style>
  </defs>
  <path class="st0" d="M100,134.3c-3.2,0-5.9,1.1-8.1,3.3-2.2,2.2-3.3,5-3.3,8.1s1.1,5.8,3.3,8c2.2,2.3,5,3.4,8.1,3.4s5.7-1.2,7.9-3.4c2.2-2.2,3.3-4.9,3.3-8s-1.1-5.9-3.3-8.1c-2.2-2.2-4.7-3.3-7.9-3.3Z"/>
  <path class="st0" d="M124.3,50.1c-6.8-4.8-12.6-7.2-23.6-7.2s-19.7,2.7-26.1,8.1c-6.5,5.4-9.5,13.4-9.1,24.1,0,3.2,1.5,5.3,4.2,6.3,1.1.4,2.3.6,3.4.6s3.1-.4,4.7-1.1c2.7-1.4,3.9-3.3,3.9-5.8-.2-6.3,1.3-11.2,4.5-14.7s9.3-5.3,13.9-5.3,8.6,1.5,12,4.5c3.4,3,5.1,7.9,5.1,11s-.6,5.8-1.9,8-2.8,4-4.7,5.2c-1.9,1.2-4,2.6-6.2,4.2-2.3,1.6-4.3,3.2-6.2,4.8-1.9,1.6-3.4,3.9-4.7,7s-1.9,6.7-1.9,10.8v8.4c0,3.3,1.4,5.6,4.1,7,1.3.7,2.7,1,4,1s2.7-.3,4-1c2.7-1.4,4.1-3.7,4.1-7v-8.8c0-3.2.7-6.1,2-8.4,1.3-2.3,2.9-4.1,4.9-5.4,2-1.3,4.1-2.7,6.4-4.2s4.4-3.1,6.4-4.7c1.9-1.6,7-10,7-18.4s-3.5-14.2-10.3-19Z"/>
  <path class="st0" d="M100,1.7C45.7,1.7,1.7,45.7,1.7,100s44,98.3,98.3,98.3,98.3-44,98.3-98.3S154.3,1.7,100,1.7ZM100,181.7c-45.1,0-81.7-36.6-81.7-81.7S54.9,18.3,100,18.3s81.7,36.6,81.7,81.7-36.6,81.7-81.7,81.7Z"/>
</svg>