<?xml version="1.0" encoding="UTF-8"?>
<svg id="_레이어_1" data-name="레이어_1" xmlns="http://www.w3.org/2000/svg" version="1.1" viewBox="0 0 200 200">
  <!-- Generator: Adobe Illustrator 29.4.0, SVG Export Plug-In . SVG Version: 2.1.0 Build 152)  -->
  <path d="M134.5,69.2c0,4.3-.7,8-2,11.2-1.3,3.1-3,5.5-4.9,7.1-2,1.6-4.1,3.2-6.4,4.7-2.3,1.5-4.4,2.9-6.4,4.2-2,1.3-3.6,3.1-4.9,5.4-1.3,2.3-2,5.2-2,8.4v8.8c0,3.3-1.4,5.6-4.1,7-2.7,1.4-5.4,1.4-8.1,0-2.7-1.4-4.1-3.7-4.1-7v-8.4c0-4.1.6-7.7,1.9-10.8,1.3-3.1,2.8-5.4,4.7-7,1.9-1.6,3.9-3.2,6.2-4.8,2.2-1.6,4.3-3,6.2-4.2,1.9-1.2,3.4-3,4.7-5.2,1.3-2.2,1.9-4.9,1.9-8s-1.7-8-5.1-11c-3.4-3-7.4-4.5-12-4.5s-10.7,1.8-13.9,5.3c-3.2,3.5-4.7,8.4-4.5,14.7,0,2.5-1.2,4.4-3.9,5.8-2.7,1.3-5.4,1.5-8.1.5-2.7-1-4.1-3.1-4.2-6.3-.4-10.7,2.6-18.7,9.1-24.1,6.4-5.4,15.1-8.1,26.1-8.1s16.8,2.4,23.6,7.2c6.8,4.8,10.3,11.2,10.3,19ZM111.2,145.7c0,3.1-1.1,5.8-3.3,8-2.2,2.2-4.8,3.4-7.9,3.4s-5.9-1.1-8.1-3.4c-2.2-2.2-3.3-4.9-3.3-8s1.1-5.9,3.3-8.1c2.2-2.2,4.9-3.3,8.1-3.3s5.7,1.1,7.9,3.3c2.2,2.2,3.3,4.9,3.3,8.1Z"/>
  <path d="M100,1.7C45.7,1.7,1.7,45.7,1.7,100s44,98.3,98.3,98.3,98.3-44,98.3-98.3S154.3,1.7,100,1.7ZM100,181.7c-45.1,0-81.7-36.6-81.7-81.7S54.9,18.3,100,18.3s81.7,36.6,81.7,81.7-36.6,81.7-81.7,81.7Z"/>
</svg>