<?xml version="1.0" encoding="utf-8" ?><svg xmlns="http://www.w3.org/2000/svg" xmlns:xlink="http://www.w3.org/1999/xlink" width="200" height="200" viewBox="0 0 200 200"><path transform="scale(0.390625 0.390625)" d="M260 475.998C211.528 479.092 166.782 439.256 161.418 391.376C159.708 376.117 163.565 351.544 157.9 338.626C153.321 328.183 143.528 321.805 135.812 313.874C40.6504 216.073 100.336 56.5118 229.622 33.9694C237.033 32.6772 244.347 32.3382 251.826 31.7532C290.875 30.168 331.278 45.0095 361.239 69.6502C440.348 134.71 442.672 252.696 368.671 321.357C361.993 327.553 356.604 331.425 353.168 340.337C347.227 355.747 350.831 375.802 349.565 392.236C345.846 440.528 305.905 471.676 260 475.998ZM251.826 68.0112L251.38 68.0777C244.575 69.0593 238.684 69.167 231.712 70.6219C129.875 91.8715 89.5198 215.566 165.337 292.485C178.954 306.3 188.564 313.439 194.763 332.465C197.59 341.14 196.387 353.101 207.989 354.497C213.841 355.201 220.136 354.759 226.049 354.759L260 354.75L289.781 354.768C308.221 354.775 311.827 356.943 315.56 337.994C318.401 323.577 326.629 309.629 337.604 299.975C341.261 296.759 345.117 293.926 348.48 290.371C379.19 257.901 392.833 212.519 382.733 168.879C368.913 109.166 313.257 66.9478 252.203 68.0038L251.826 68.0112ZM200.96 390.531C191.334 391.517 212.636 420.088 217.025 423.963C240.111 444.344 273.25 443.817 295.787 423.112C305.156 413.865 311.559 403.64 313.799 390.531C304.494 390.757 295.14 390.531 285.829 390.532L229.872 390.536C220.463 390.533 210.24 390.097 200.96 390.531Z"/><path transform="scale(0.390625 0.390625)" d="M342.945 219.747C319.591 224.503 321.576 198.265 318.557 186.135C311.992 159.754 289.592 139.406 263.006 134.401C255.948 133.073 247.273 134.681 241.126 130.889C226.637 121.95 231.097 101.052 248.138 97.2305C298.831 94.0918 345.578 132.709 355.771 181.81C358.581 195.342 361.554 216.144 342.945 219.747Z"/></svg>