<?xml version="1.0" encoding="utf-8" ?><svg xmlns="http://www.w3.org/2000/svg" xmlns:xlink="http://www.w3.org/1999/xlink" width="200" height="200" viewBox="0 0 200 200"><path transform="scale(0.390625 0.390625)" d="M258.807 107.055C249.56 108.865 240.016 101.538 238.12 92.6078C236.668 85.7684 236.687 53.7988 237.925 46.6567C239.357 38.3989 244.946 32.9671 253.182 31.2958C278.303 29.3468 274.441 54.3512 274.487 70.3438C274.529 84.8766 277.859 103.151 258.807 107.055Z"/><path transform="scale(0.390625 0.390625)" d="M373.491 157.997C357.193 158.495 345.6 140.839 355.904 127.289C359.279 122.85 363.953 118.992 367.904 115.052C376.517 106.463 384.533 94.5023 396.895 92.8308C406.381 92.2873 415.727 99.0893 417.348 108.611C419.608 121.892 408.369 129.009 400.144 137.294C391.973 145.526 385.521 155.92 373.491 157.997Z"/><path transform="scale(0.390625 0.390625)" d="M143.812 157.997C129.203 158.49 120.899 145.272 111.159 135.563C106.785 131.202 100.489 126.026 97.1419 121.033C89.5572 109.72 97.5052 94.9629 111.479 93.5957C122.926 92.1836 130.432 102.835 137.688 109.828C148.093 119.855 167.132 132.023 157.325 148.681C154.263 153.884 149.504 156.522 143.812 157.997Z"/><path transform="scale(0.390625 0.390625)" d="M263.108 377.937C194.88 381.754 136.495 329.495 132.758 261.263C129.021 193.031 181.349 134.708 249.585 131.051C317.709 127.4 375.913 179.622 379.644 247.741C383.375 315.86 331.222 374.126 263.108 377.937ZM248.612 168.765C201.382 172.923 166.457 214.569 170.592 261.801C174.727 309.034 216.356 343.979 263.591 339.866C310.857 335.752 345.831 294.088 341.693 246.823C337.556 199.559 295.875 164.605 248.612 168.765Z"/><path transform="scale(0.390625 0.390625)" d="M91.4747 273.585L65.5378 273.594C57.6351 273.592 48.8493 274.726 41.9319 270.046C27.1771 260.064 32.1391 238.148 51.4743 234.75C55.6024 234.332 60.9864 234.74 65.2377 234.736L82.8136 234.727C86.4958 234.727 90.4147 234.457 94.0485 235.135C115.856 239.202 113.845 271.719 91.4747 273.585Z"/><path transform="scale(0.390625 0.390625)" d="M460.534 273.585L432.881 273.592C427.996 273.594 422.533 274.188 417.742 273.255C397.204 269.254 396.264 238.471 420.457 234.75C425.286 234.373 430.476 234.742 435.337 234.74L451.618 234.74C455.675 234.743 459.886 234.486 463.883 235.297C484.44 239.473 483.666 271.745 460.534 273.585Z"/><path transform="scale(0.390625 0.390625)" d="M116.944 415.258C106.569 417.088 96.1622 408.691 95.2187 398.326C94.3178 388.43 99.2123 384.269 105.419 378.09L116.773 366.772C123.528 360.108 128.791 351.484 138.951 350.607C153.794 347.243 167.209 367.286 156.664 380.205C150.706 387.505 143.324 394.089 136.685 400.762C131.026 406.451 125.624 414.394 116.944 415.258Z"/><path transform="scale(0.390625 0.390625)" d="M399.984 415.258C387.152 415.929 377.556 402.018 369.463 393.829C365.161 389.477 357.985 383.21 354.901 378.379C347.164 366.257 355.381 351.894 369.063 350.607C376.49 349.895 380.005 353.264 384.998 357.918L396.645 368.977C406.988 378.745 424.379 389.687 413.896 406.508C410.727 411.591 405.627 413.949 399.984 415.258Z"/><path transform="scale(0.390625 0.390625)" d="M258.807 476.714C240.438 477.887 237.226 464.909 237.254 449.481L237.268 434.939C237.251 421.154 234.539 402.665 254.427 400.602C269.813 398.824 274.554 412.828 274.516 425.146L274.529 451.577C274.56 463.064 272.774 473.987 258.807 476.714Z"/></svg>