<?xml version="1.0" encoding="UTF-8"?>
<svg id="_레이어_1" data-name="레이어_1" xmlns="http://www.w3.org/2000/svg" version="1.1" viewBox="0 0 200 200">
  <!-- Generator: Adobe Illustrator 29.4.0, SVG Export Plug-In . SVG Version: 2.1.0 Build 152)  -->
  <path d="M100,4.9c-66.1,0-76.9,12.9-76.9,28.8v126.4c0,3.4,1.2,6.8,3.1,9.9,5.1,8.1,14.6,12.2,24.1,10.8,13.8-1.9,50.8-5.9,66.8,3.9,2.1,1.3,4.2,4.2,5.6,8.2,1.1,2.9,4.4,2.1,5.4,2,18.9-2.5,27.1-7.2,33.1-10.5,6.1-3.3,15.6-13.8,15.6-24.3V33.7c0-15.9-10.7-28.8-76.9-28.8ZM160.9,44v102.9c0,8.5-.2,16.4-5,19.1-4.8,2.7-8,5.1-19.9,7.9-.7.2-2.9-1.3-4.3-3.4-2.1-3.4-9.1-5.6-10.9-6.5-14.4-6.8-52.7-3.5-63.7-2-7.5,1.1-13.2,3.9-17.2-2.7-1.5-2.5-.8-9.8-.8-12.5V44c0-12.9-6.2-23.4,60.9-23.4s60.9,10.5,60.9,23.4Z"/>
  <path d="M142.9,54.5c-1.8-1.5-3.9-2.3-6.2-2.3s-3.2.4-4.5,1.2c-1.3.8-2.1,2-2.4,3.5l-10.4,45.3-10.6-41.4c-.6-1.9-1.7-3.4-3.4-4.5-1.7-1.1-3.6-1.6-5.6-1.6s-3.8.6-5.5,1.7c-1.7,1.1-2.8,2.6-3.4,4.5l-10.8,41.3-10-45.2c-.7-3-2.9-4.5-6.6-4.5s-4.5.8-6.3,2.3c-1.8,1.5-2.4,3.4-1.9,5.7l15.4,63.8c.7,2.4,1.9,4.2,3.6,5.5,1.7,1.3,3.6,1.9,5.7,1.9s3.9-.6,5.6-1.9c1.7-1.3,2.9-3.1,3.5-5.5l10.7-40.8,10.7,40.4c.7,2.2,2,4.1,3.8,5.5,1.8,1.4,3.6,2.2,5.5,2.2s3.9-.7,5.7-2c1.7-1.3,3-3.2,3.7-5.8l16-63.6c.4-2.2-.2-4.1-2-5.6Z"/>
</svg>