<?xml version="1.0" encoding="UTF-8"?>
<svg id="_레이어_1" xmlns="http://www.w3.org/2000/svg" version="1.1" viewBox="0 0 200 200">
  <!-- Generator: Adobe Illustrator 29.4.0, SVG Export Plug-In . SVG Version: 2.1.0 Build 152)  -->
  <defs>
    <style>
      .st0 {
        fill: #fff;
      }
    </style>
  </defs>
  <rect x="1.3" y="1.3" width="197.3" height="197.3" rx="36.3" ry="36.3"/>
  <rect class="st0" x="14.4" y="14.5" width="171.2" height="149.7" rx="24.4" ry="24.4"/>
  <path d="M136.4,72.5h-20.1c-1.2-8.2-6.9-13.2-16.2-13.2s-14.1,3.9-14.1,9.6,6.7,9.5,23.8,13.3c20.1,4.5,27,15.2,27,29.3s-15.7,29-35.2,29-37.3-12.6-38.1-32.6h20c1.1,9,8.4,15,19.5,15s13.8-4.3,13.8-10.4-5.9-10.5-21.4-13.6c-19-3.8-29.2-12.2-29.2-29.9s15.6-27.1,35.3-27.1,34.1,12.8,35,30.7Z"/>
</svg>