<?xml version="1.0" encoding="UTF-8"?>
<svg id="_레이어_2" xmlns="http://www.w3.org/2000/svg" version="1.1" viewBox="0 0 1477.5 498.5">
  <!-- Generator: Adobe Illustrator 29.4.0, SVG Export Plug-In . SVG Version: 2.1.0 Build 152)  -->
  <defs>
    <style>
      .st0 {
        fill: #fff;
      }

      .st1 {
        fill: #e1e1e1;
      }

      .st2 {
        stroke-linecap: round;
      }

      .st2, .st3 {
        fill: none;
        stroke: #e1e1e1;
        stroke-miterlimit: 10;
        stroke-width: 3px;
      }
    </style>
  </defs>
  <g>
    <line class="st2" x1="924.8" y1="57.4" x2="1019.8" y2="57.4"/>
    <g>
      <path class="st1" d="M1099.4,63.3h-19.8v8.8h-6.2v-8.8h-20.8v-5h46.8v5ZM1094.2,81.9h-36v-14.1h6.2v9h29.7v5.1ZM1064.9,39.2h22.1v-5.8h6.2v20.8h-34.6v-20.8h6.2v5.8ZM1087,49.3v-5.4h-22.1v5.4h22.1Z"/>
      <path class="st1" d="M1133.4,55.3l-3.4,5c-5.6-2-9.5-5.8-11.7-10.8-2.3,5.4-6.5,9.6-12.3,11.7l-3.4-5c8.3-2.8,12.5-9.5,12.5-16.8v-5h6.3v5.4c0,6.6,4.1,12.9,12,15.4ZM1145.7,83h-6.3v-13.3h-28.6v-5h34.9v18.3ZM1145.7,62.2h-6.3v-15.3h-10.2v-5.2h10.2v-10h6.3v30.4Z"/>
      <path class="st1" d="M1209.6,57.7h-6.3v-4.5h-12.3v-4.8h12.3v-5h-11.7c-3.2,7.8-10.7,12.9-22,15.5l-2.2-5.2c12-2.5,18-7.8,18.9-14.6h-16.1v-5.1h23.1c0,1.6-.1,3.1-.3,4.6h10.3v-6.8h6.3v25.9ZM1209.6,73.2h-27.4v4.2h28.7v5h-35v-14h27.4v-3.8h-27.4v-5h33.7v13.5Z"/>
      <path class="st1" d="M1232.5,66.8c5.2-.2,10.6-.6,15.5-1.2l.3,4.7c-10.6,1.7-22.3,1.9-31.3,1.9l-.6-5c3,0,6.4,0,9.9-.2v-15.3h6.2v15.1ZM1245.4,40.7c0,4.6,0,11-1.4,19.8l-6.2-.5c1.2-7.8,1.4-13.5,1.4-17.9h-20.1v-5h26.3v3.6ZM1257,52.6h7.4v5.3h-7.4v25h-6.3V31.7h6.3v20.8Z"/>
      <path class="st1" d="M1289.2,64.7c4.4,0,9.3-.5,14.6-1.5l.6,5.5c-6.9,1.2-12.7,1.6-18.2,1.6h-3.4v-32.6h6.3v27ZM1324.6,83h-6.1v-25.9h-5.7v23.3h-5.9v-47.6h5.9v19.2h5.7v-20.2h6.1v51.2Z"/>
      <path class="st1" d="M1377.6,76.8h-46.8v-5.2h20.2v-10h-15v-26.5h6.3v8.4h23.7v-8.4h6.3v26.5h-15.1v10h20.4v5.2ZM1366,56.6v-8h-23.7v8h23.7Z"/>
      <path class="st1" d="M1389.5,64.7c4.4,0,9.3-.5,14.6-1.5l.6,5.5c-6.9,1.2-12.7,1.6-18.2,1.6h-3.4v-32.6h6.3v27ZM1424.9,83h-6.1v-25.9h-5.7v23.3h-5.9v-47.6h5.9v19.2h5.7v-20.2h6.1v51.2Z"/>
      <path class="st1" d="M1434.7,73.9l-3.3-5c13.4-6.4,19.6-15,20.7-26.7h-18.1v-5h24.5c0,15.2-5.9,28.2-23.8,36.7ZM1473.8,83h-6.3V31.7h6.3v51.2Z"/>
    </g>
  </g>
  <g>
    <g>
      <path class="st1" d="M1076.2,169.8h-17.2v10.2c8.1,0,14.4-.4,21.6-1.6l.6,5.1c-7.9,1.4-14.9,1.8-24.2,1.8h-4.2v-20.4h17.2v-9.2h-17.3v-5.1h23.5v19.3h0ZM1090.6,165.7h7.9v5.3h-7.9v26.3h-6.2v-51.2h6.2v19.6h0Z"/>
      <path class="st1" d="M1129,167.8c0,11.1-5.7,18.1-13.4,18.1s-13.4-7-13.4-18.1,5.6-18.1,13.4-18.1,13.3,7,13.4,18.1ZM1108.3,167.8c0,7.9,2.9,12.4,7.3,12.4s7.2-4.6,7.2-12.4-2.9-12.4-7.2-12.4-7.3,4.6-7.3,12.4ZM1143.2,197.2h-6.3v-51.2h6.3v51.2Z"/>
      <path class="st1" d="M1197.5,191h-46.7v-5.1h46.7v5.1ZM1192.3,177.8h-35.9v-27.8h35.4v5.1h-29v6.2h27.8v4.9h-27.8v6.6h29.5v5h0Z"/>
      <path class="st1" d="M1206.1,198.3h-6.3l13.2-49.1h6.3l-13.2,49.1h0Z"/>
      <path class="st1" d="M1247.6,156h-17.7v23.5c7.9,0,14.2-.4,21.3-1.6l.7,5.3c-7.9,1.4-14.8,1.6-24.1,1.6h-4.2v-33.8h23.9v5.1h0ZM1261.7,165.4h7.9v5.1h-7.9v26.6h-6.3v-51.2h6.3v19.4h0Z"/>
      <path class="st1" d="M1318.3,190.7h-46.6v-5.1h46.6v5.1ZM1313.2,156.9c0,7.4,0,14.5-2.3,25.3l-6.3-.6c1.1-4.5,1.6-8.4,2-12.1l-30.2,1.6-.8-5.1,31.3-1.2c0-2.8,0-5.4,0-8v-1h-29.9v-5.1h36v6.1h.1Z"/>
      <path class="st1" d="M1382.3,191h-46.7v-5.1h20.1v-11.1h-15v-24.7h36.2v24.7h-15v11.1h20.4v5.1ZM1346.8,169.8h23.8v-14.7h-23.8v14.7Z"/>
      <path class="st1" d="M1432.3,190.7h-46.7v-5.2h46.7v5.2ZM1427.1,175.1h-35.9v-24.6h35.5v5.1h-29.3v14.4h29.7v5h0Z"/>
    </g>
    <line class="st2" x1="924.8" y1="172.2" x2="1019.8" y2="172.2"/>
  </g>
  <g>
    <line class="st2" x1="456.8" y1="57.4" x2="551.8" y2="57.4"/>
    <g>
      <path class="st1" d="M132.7,40.3h-13.4v5.3h11.5v4.8h-11.5v5.7c6.1,0,10.4-.3,15.3-1.2l.7,5c-5.9,1-10.8,1.1-18.7,1.1h-3.4v-25.8h19.5v5ZM154.8,83h-6.3v-12.2h-28.9v-5h35.2v17.2ZM144.7,63.2h-6v-13.2h-5.8v-5.1h5.8v-12.1h6v30.4ZM154.8,63.6h-6v-31.8h6v31.8Z"/>
      <path class="st1" d="M207.9,76.4h-46.8v-5.2h46.8v5.2ZM206.1,56.5l-2.8,5.3c-8.6-1.8-15.6-7-18.9-13.9-3.4,6.8-10.4,12-19,13.9l-2.8-5.3c10.6-1.9,18.3-9.9,18.4-17.7v-3.8h6.7v3.8c0,7.9,7.8,15.9,18.5,17.7Z"/>
      <path class="st1" d="M258.1,76.7h-46.8v-5.2h46.8v5.2ZM252.9,63.6h-35.9v-27.8h35.5v5.1h-29.1v6.2h27.9v4.9h-27.9v6.6h29.5v5Z"/>
      <path class="st1" d="M308.2,77h-46.8v-5.2h20.2v-8.3h-14.6v-16.8h29.5v-6.3h-29.6v-5.1h35.8v16.4h-29.4v6.6h30.6v5.2h-16v8.3h20.4v5.2Z"/>
      <path class="st1" d="M372,62.6h-46.7v-5h20.1v-4.9h-14v-19.6h6.2v5.1h22.1v-5.1h6.2v19.6h-14.2v4.9h20.2v5ZM366.2,83h-6.3v-11.3h-29.5v-5h35.8v16.3ZM359.7,47.6v-4.8h-22.1v4.8h22.1Z"/>
      <path class="st1" d="M406.2,66.2l-3.9,5c-5.6-2.8-9.5-8.2-11.7-14.7-2.2,7-6.4,12.7-12.3,15.7l-3.9-5c8.2-3.9,12.9-13.7,13-23.2v-8.2h6.3v8.2c0,9.1,4.5,18.4,12.5,22.2ZM415.5,51.8h7.9v5.4h-7.9v25.8h-6.3V31.7h6.3v20.1Z"/>
    </g>
  </g>
  <g>
    <g>
      <path class="st0" d="M26.1,144.9l33.1-2.4c4.1-.4,5.1-.1,7.7,1.7l10.6,7.4c1.7,1.3,2.3,1.6,2.3,3v40.8c0,2.6-.9,4.1-4.2,4.3l-38.4,2.3c-2.4.1-3.6-.2-4.9-1.9l-7.8-10.1c-1.4-1.9-2-3.3-2-4.9v-36.3c0-2.1.9-3.8,3.6-4.1h0v.2Z"/>
      <path d="M59.2,142.4l-33.1,2.4c-2.7.2-3.6,2-3.6,4.1v36.3c0,1.6.6,3,2,4.9l7.8,10.1c1.3,1.6,2.4,2,4.9,1.9l38.4-2.3c3.2-.2,4.2-1.7,4.2-4.3v-40.8c0-1.3-.5-1.7-2.1-2.8l-.3-.2-10.6-7.4c-2.6-1.9-3.6-2.1-7.7-1.7h0v-.2ZM38,154c-3.1.2-3.8.3-5.6-1.2l-4.5-3.6c-.5-.5-.2-1.1.9-1.2l31.8-2.3c2.7-.2,4.1.7,5.1,1.5l5.5,3.9c.2.1.8.8,0,.8l-32.8,2h-.5ZM34.3,195.1v-34.6c0-1.5.5-2.2,1.9-2.3l37.7-2.2c1.3-.1,1.9.7,1.9,2.2v34.4c0,1.5-.2,2.8-2.3,2.9l-36.1,2.1c-2.1.1-3-.6-3-2.4h-.1ZM69.9,162.3c.2,1.1,0,2.1-1.1,2.2l-1.7.3v25.6c-1.5.8-2.9,1.3-4.1,1.3-1.9,0-2.3-.6-3.7-2.3l-11.4-17.9v17.3l3.6.8s0,2.1-2.9,2.1l-8,.5c-.2-.5,0-1.6.8-1.9l2.1-.6v-22.9l-2.9-.2c-.2-1.1.3-2.6,2-2.7l8.6-.6,11.8,18.1v-16l-3-.4c-.2-1.3.7-2.2,1.9-2.3l8-.5h0Z"/>
    </g>
    <g>
      <path class="st1" d="M139.6,174.1h-15.1v12.4h20.3v5.1h-46.7v-5.1h20.1v-12.4h-14.8v-23.5h6.4v18.4h29.8v5.1h0Z"/>
      <path class="st1" d="M178.6,172.9l-3.5,4.9c-5.5-2.1-9.4-6.4-11.5-11.7-2.2,5.7-6.3,10.2-12.2,12.4l-3.4-5c8.1-2.9,12.3-10.2,12.4-17.8v-6.1h6.3v6.1c0,7.2,4,14.3,11.9,17.2h0ZM192.1,196.7h-34.9v-15.8h6.4v10.8h28.5v5.1h0ZM190.9,184.6h-6.3v-15.8h-9.3v-5h9.3v-5h-9.3v-5.1h9.3v-7h6.3v38h0Z"/>
      <path class="st1" d="M258.7,191.9h-46.7v-5.1h12.1v-10.5h-8.1v-5.1h7.2v-15.2h-7.4v-5h38.8v5h-7.5v15.2h7.3v5.1h-8.1v10.5h12.3v5.1h.1ZM240.9,171.1v-15.2h-11.5v15.2h11.5ZM240.1,186.8v-10.5h-9.7v10.5h9.7Z"/>
      <path class="st1" d="M308.8,191.8h-46.7v-5.2h20.1v-8.3h-14.6v-16.8h29.4v-6.3h-29.5v-5.1h35.8v16.4h-29.4v6.6h30.6v5.1h-16v8.3h20.4v5.2h0Z"/>
      <path class="st1" d="M357.6,182l-3.7,5c-5.9-2.8-10.2-8.5-12.4-15.3-2.3,7.2-6.6,13.3-12.6,16.3l-3.8-4.9c8.2-3.9,13-13.6,13.1-22.9v-3.4h-11v-5.1h28.4v5.1h-11v3.4c0,8.8,4.8,18.2,13,21.8h0ZM368.7,197.8h-6.3v-27.9h-9.9v-5.1h9.9v-18.1h6.3v51.2h0Z"/>
      <path class="st1" d="M406.3,170.4l-3,4.9c-5.7-1.8-9.8-5.4-12-10.1-2.3,5.4-6.6,9.6-12.7,11.7l-3.2-5c8.3-2.7,12.6-9.3,12.6-16.1v-.6h-10.8v-5.1h27.8v5.1h-10.6v.6c0,6.3,4.1,12.2,12,14.6h0ZM416.8,187.9c0,6.2-6.6,9.8-17.1,9.8s-17.3-3.6-17.3-9.8,6.6-9.7,17.3-9.7,17.1,3.6,17.1,9.7ZM388.6,187.9c0,3.2,4,4.9,11,4.9s10.9-1.7,10.9-4.9-3.9-4.8-10.9-4.8-11,1.6-11,4.8ZM416.3,158.9h7.1v5.1h-7.1v13.1h-6.3v-30.5h6.3v12.3h0Z"/>
    </g>
    <line class="st2" x1="456.8" y1="172.2" x2="551.8" y2="172.2"/>
  </g>
  <g>
    <g>
      <path class="st1" d="M178.2,483.3h-19.1v-26.5h19.1v26.5ZM163.9,479.4h9.3v-18.6h-9.3v18.6ZM189.3,468.4h6.2v4.2h-6.2v20.7h-5v-40.4h5v15.5h0Z"/>
      <path class="st1" d="M234,488.2h-36.8v-4.1h36.9v4.1h-.1ZM230,461.5c0,5.9,0,11.5-1.8,20l-5-.5c.8-3.5,1.3-6.6,1.6-9.5l-23.8,1.2-.7-4,24.7-.9v-7.1h-23.6v-4h28.5v4.8h.1Z"/>
      <path class="st1" d="M257.4,460.8h-13.9v18.6c6.3,0,11.2-.3,16.8-1.3l.6,4.2c-6.3,1.1-11.7,1.2-19,1.2h-3.4v-26.7h18.9v4h0ZM268.4,468.3h6.2v4.1h-6.2v21.1h-5v-40.5h5v15.3h0Z"/>
      <path class="st1" d="M313.3,476.9h-15.6v7.4h-5v-7.4h-16.3v-4h36.9v4h0ZM309.2,462.1c0,5.1-5.8,8.2-14.5,8.2s-14.5-3.1-14.5-8.2,5.8-8.3,14.5-8.3,14.5,3.2,14.5,8.3ZM309.2,492.5h-28.4v-12h5v7.9h23.3v4.1h.1ZM285.6,462.1c0,2.7,3.6,4.2,9.1,4.2s9.2-1.6,9.2-4.2-3.6-4.3-9.2-4.3-9.2,1.6-9.1,4.3Z"/>
      <path class="st1" d="M325.1,455.6h5.4c-3.1,4.4-6.2,13.4-6.2,21.4s3.1,17,6.2,21.5h-5.4c-4.2-6-6.7-13-6.7-21.5s2.5-15.4,6.7-21.4Z"/>
      <path class="st1" d="M334.5,486.2c0-1.9,1.6-3.4,3.5-3.4s3.4,1.6,3.4,3.4-1.6,3.5-3.4,3.5-3.5-1.6-3.5-3.5Z"/>
      <path class="st1" d="M347,465.1h5.5v4.1h.3c1-2.8,3.4-4.4,6.7-4.4s5.6,1.6,6.6,4.4h.3c1.1-2.7,3.8-4.4,7.3-4.4s7.6,2.9,7.6,8.3v16.3h-5.7v-15.4c0-3-1.8-4.4-4.2-4.4s-4.4,1.9-4.4,4.6v15.2h-5.5v-15.6c0-2.5-1.7-4.2-4.1-4.2s-4.5,2-4.5,5v14.8h-5.7v-24.3h-.2Z"/>
      <path class="st1" d="M385.6,477.2c0-8.1,4.4-12.5,10.1-12.5s6.1,2.5,6.9,4.3h.2v-12.1h5.7v32.4h-5.6v-3.9h-.3c-.9,1.8-2.8,4.3-7,4.3s-10-4.6-10-12.6h0ZM402.9,477.2c0-4.7-2.1-7.8-5.8-7.8s-5.8,3.3-5.8,7.8,2,7.9,5.8,7.9,5.8-3.2,5.8-7.9Z"/>
      <path class="st1" d="M418.2,498.5h-5.4c3.1-4.5,6.2-13.5,6.2-21.5s-3.1-17-6.2-21.4h5.4c4.2,6,6.7,13,6.7,21.4s-2.5,15.4-6.7,21.5Z"/>
      <path class="st1" d="M463.9,460.9h-3.9v18.2c1.8-.2,3.6-.3,5.4-.5l.2,3.6c-8.4,1.4-17.7,1.6-24.7,1.6l-.6-4.1h4.9v-18.8h-3.9v-4.1h22.6v4.1h0ZM455.3,479.4v-18.5h-5.2v18.6c1.7,0,3.5,0,5.2-.2h0ZM472.5,468.6h6.2v4.1h-6.2v20.7h-5v-40.4h5v15.6h0Z"/>
      <path class="st1" d="M502.6,463.3c0,5.4-4.6,9.1-10.7,9.1s-10.7-3.8-10.7-9.1,4.6-9.1,10.7-9.1,10.7,3.8,10.7,9.1ZM486,463.3c0,3.1,2.5,5.1,5.9,5.1s5.9-2,5.9-5.1-2.5-5-5.9-5-5.9,1.9-5.9,5ZM514.1,485.6h-21.9v3.3h23.1v3.9h-28v-10.9h21.8v-3h-21.9v-3.9h26.8v10.5h0ZM514.1,473.4h-5v-20.4h5v20.4Z"/>
      <path class="st1" d="M556.9,473.6h-36.8v-4h36.8v4ZM553,460.5c0,4.5-5.4,6.9-14.6,7-9.2,0-14.6-2.5-14.6-7s5.4-6.9,14.6-6.9,14.5,2.5,14.6,6.9ZM552.3,486.2h-23v3h24.1v3.8h-29v-10.3h23v-2.7h-23v-3.7h27.9v9.9h0ZM529.1,460.5c0,2.2,3.2,3.3,9.3,3.3s9.4-1,9.4-3.3-3.2-3.3-9.4-3.3-9.4,1.2-9.3,3.3Z"/>
      <path class="st1" d="M603.4,474.7h-11.9v9.8h16v4h-36.9v-4h15.9v-9.8h-11.7v-18.6h5.1v14.5h23.5v4h0Z"/>
      <path class="st1" d="M634.2,473.7l-2.8,3.9c-4.3-1.7-7.4-5.1-9.1-9.3-1.7,4.5-5,8-9.7,9.8l-2.7-3.9c6.4-2.3,9.8-8,9.8-14.1v-4.8h5v4.8c0,5.7,3.2,11.3,9.4,13.6h0ZM644.8,492.5h-27.5v-12.5h5v8.5h22.5v4h0ZM644,483h-5v-12.5h-7.4v-4h7.4v-4h-7.4v-4h7.4v-5.5h5v30h0Z"/>
      <path class="st1" d="M676.2,491.4h-4.7v-19.2h-3.8c-.5,7.9-3.8,12.8-8.8,12.7-5.3,0-8.7-5.5-8.7-14.4s3.4-14.4,8.7-14.4,8.2,4.6,8.8,12.1h3.9v-14.5h4.7v37.7h-.1ZM654.7,470.4c0,6.3,1.6,9.8,4.1,9.7,2.7,0,4.3-3.4,4.3-9.7s-1.6-9.8-4.3-9.7c-2.5,0-4.2,3.4-4.1,9.7ZM684.6,493.3h-4.8v-40.4h4.8v40.4Z"/>
      <path class="st1" d="M737,473.6h-16v3h11.4v9.8h-23v2.8h24.1v3.8h-29v-10.1h23v-2.6h-23v-3.7h11.5v-3h-15.9v-4.1h36.8v4.1h.1ZM709.8,456.7h17.4v-3.2h4.9v13.5h-27.3v-13.5h4.9v3.2h0ZM727.3,463.3v-3h-17.4v3h17.4Z"/>
      <path class="st1" d="M759.4,471.2h-13.2v8.5c6,0,10.8-.2,16.3-1.2l.4,4.1c-6,1.1-11.4,1.3-18.4,1.3h-3.2v-16.7h13.3v-6.8h-13.4v-4h18.3v14.8h0ZM773.6,493.4h-5v-21.5h-6.9v-4.1h6.9v-14.9h5v40.5h0Z"/>
      <path class="st1" d="M812.8,466.1c0,6.1-5.2,10.1-12.6,10.8v7.4h16.1v4.1h-36.9v-4.1h15.9v-7.4c-7.4-.7-12.6-4.8-12.5-10.8,0-6.6,6.3-10.9,15-10.9s15.1,4.3,15.1,10.9h0ZM787.6,466.1c0,4.4,4.2,7,10.1,7s10.2-2.6,10.2-7-4.2-6.9-10.2-6.9-10.2,2.6-10.1,6.9Z"/>
      <path class="st1" d="M839.7,459.5h8.1v-6.6h5v29.4h-5v-10.2h-8.1v3.5h-19v-19.4h19v3.2h0ZM825.6,471.8h9.1v-11.5h-9.1v11.5ZM853.7,492.5h-27.5v-12.9h5v8.9h22.5v4h0ZM847.8,468.2v-4.6h-8.1v4.6h8.1Z"/>
      <path class="st1" d="M894,480.7l-2.8,3.9c-4.6-2.1-7.9-6.5-9.8-11.5-1.8,5.5-5.4,10.3-10,12.5l-2.9-3.9c6.4-3,10.3-10.6,10.4-17.4v-3.4h-8.8v-4.1h22.2v4.1h-8.5v3.4c0,6.3,3.7,13.4,10.1,16.3h0ZM901,468.7h6.2v4.2h-6.2v20.5h-5v-40.4h5v15.7h0Z"/>
      <path class="st1" d="M945.9,476.3h-36.9v-4h16v-3.9h-11.5v-13.7h27.9v3.9h-22.9v5.9h23.2v3.9h-11.8v3.9h16v4h0ZM941.3,486c0,4.7-5.3,7.4-14,7.4s-14.1-2.7-14.1-7.4,5.3-7.4,14.1-7.4,14,2.6,14,7.4ZM918.3,486c0,2.3,3.1,3.5,9,3.5s9-1.2,9-3.5-3.3-3.6-9-3.6-9.1,1.2-9,3.6Z"/>
      <path class="st1" d="M985.5,488.2h-36.9v-4.1h36.9v4.1ZM982,466.6c0,7-6.5,11.5-15.1,11.5s-15-4.5-15-11.5,6.5-11.4,15-11.4,15.1,4.5,15.1,11.4ZM956.8,466.6c0,4.6,4.3,7.4,10.2,7.4s10.2-2.9,10.2-7.4-4.3-7.4-10.2-7.4-10.2,2.9-10.2,7.4Z"/>
      <path class="st1" d="M1025.1,488.6h-36.9v-4.1h15.9v-6.6h-11.5v-13.2h23.2v-5h-23.3v-4h28.3v13h-23.2v5.2h24.2v4.1h-12.7v6.6h16.1v4.1h0Z"/>
      <path class="st1" d="M1075.6,488.7h-36.9v-4h9.6v-8.3h-6.4v-4h5.7v-12h-5.8v-4h30.7v4h-5.9v12h5.8v4h-6.4v8.3h9.8v4h-.2ZM1061.5,472.3v-12h-9.1v12h9.1ZM1060.8,484.7v-8.3h-7.7v8.3h7.7Z"/>
      <path class="st1" d="M1080.8,486l-2.8-3.9c9.8-4.9,15.2-11.8,16.2-21h-14v-4.1h19c0,11.9-4.9,22.3-18.4,28.9h0ZM1109.9,468.7h6v4.2h-6v20.4h-5v-40.3h5v15.8h0Z"/>
      <path class="st1" d="M1139.6,471.6v-3.6h-7.4v-13.1h19.4v4h-14.4v5.3h14.8v3.9h-7.4v3.4c3.4-.2,6.8-.5,10-.9l.3,3.4c-8.7,1.5-18.2,1.6-25.4,1.7l-.7-4c3.2,0,7,0,10.9-.1h-.1ZM1140.2,481.5h17.3v-3.5h4.9v14.9h-27.2v-14.9h5v3.5h0ZM1157.5,488.8v-3.6h-17.3v3.6h17.3ZM1162.4,476.3h-5v-23.3h5v23.3Z"/>
      <path class="st1" d="M1175.5,478.9c5.7,0,11.7-.6,17.9-1.8l.6,4.2c-7.1,1.5-13.7,1.9-20,1.9h-3.5v-26.3h4.9v22.1h0ZM1202,493.3h-4.9v-40.4h4.9v40.4Z"/>
      <path class="st1" d="M1228.4,460.8h-13.9v18.6c6.3,0,11.2-.3,16.8-1.3l.6,4.2c-6.3,1.1-11.7,1.2-19,1.2h-3.3v-26.7h18.9v4h0ZM1239.5,468.3h6.2v4.1h-6.2v21.1h-5v-40.5h5v15.3h0Z"/>
      <path class="st1" d="M1248.9,486.2c0-1.9,1.6-3.4,3.5-3.4s3.4,1.6,3.4,3.4-1.6,3.5-3.4,3.5-3.5-1.6-3.5-3.5Z"/>
    </g>
    <g>
      <path class="st1" d="M661.8,283.8c-.8,0-1.5-.7-1.5-1.5v-5c0-.8.7-1.5,1.5-1.5s1.5.7,1.5,1.5v5c0,.8-.7,1.5-1.5,1.5Z"/>
      <path class="st1" d="M661.8,400.8c-.8,0-1.5-.7-1.5-1.5v-10.2c0-.8.7-1.5,1.5-1.5s1.5.7,1.5,1.5v10.2c0,.8-.7,1.5-1.5,1.5ZM661.8,377.4c-.8,0-1.5-.7-1.5-1.5v-10.2c0-.8.7-1.5,1.5-1.5s1.5.7,1.5,1.5v10.2c0,.8-.7,1.5-1.5,1.5ZM661.8,354c-.8,0-1.5-.7-1.5-1.5v-10.2c0-.8.7-1.5,1.5-1.5s1.5.7,1.5,1.5v10.2c0,.8-.7,1.5-1.5,1.5ZM661.8,330.6c-.8,0-1.5-.7-1.5-1.5v-10.2c0-.8.7-1.5,1.5-1.5s1.5.7,1.5,1.5v10.2c0,.8-.7,1.5-1.5,1.5ZM661.8,307.2c-.8,0-1.5-.7-1.5-1.5v-10.2c0-.8.7-1.5,1.5-1.5s1.5.7,1.5,1.5v10.2c0,.8-.7,1.5-1.5,1.5Z"/>
      <path class="st1" d="M661.8,419c-.8,0-1.5-.7-1.5-1.5v-5c0-.8.7-1.5,1.5-1.5s1.5.7,1.5,1.5v5c0,.8-.7,1.5-1.5,1.5Z"/>
    </g>
  </g>
  <g>
    <g>
      <path class="st1" d="M1072.5,298.6c4.4-.2,8.9-.6,13.1-1.2l.5,4.6c-11.5,2.1-23.8,2.2-32.8,2.2l-.8-5.1c4,0,8.7,0,13.6-.2v-8.5h6.3v8.3h.1ZM1083.6,274.3h-10.9c.3,5.5,4.6,10.4,12.3,12.3l-2.9,4.9c-6.1-1.6-10.4-5.2-12.7-9.7-2.3,4.8-6.5,8.5-12.6,10.1l-3-4.8c7.7-2.1,12-7.2,12.3-12.9h-10.8v-5.1h10.9v-5.8h6.3v5.8h11v5.1h0ZM1095,314.1h-6.3v-51.2h6.3v51.2Z"/>
      <path class="st1" d="M1149.2,307.7h-46.7v-5.1h20v-11.8h6.2v11.8h20.5v5.1h0ZM1147.4,286.9l-2.7,5.2c-8.7-1.6-15.7-6.6-19.1-13.3-3.4,6.7-10.4,11.7-19,13.3l-2.7-5.2c10.7-1.7,18.3-9.4,18.4-17.1v-3.7h6.7v3.7c0,7.8,7.8,15.4,18.5,17.1h-.1Z"/>
      <path class="st1" d="M1175.1,274.3h12.2v-7.8h6.3v25.6h-24.7v-25.6h6.2v7.8ZM1210.1,313h-35.2v-16.3h6.3v11.2h28.9v5.1h0ZM1187.3,287.2v-8h-12.2v8h12.2ZM1208.9,300.6h-6.3v-37.6h6.3v37.6Z"/>
      <path class="st1" d="M1257.9,291.1h-15.2v11.7h20.4v5.1h-46.7v-5.1h20.1v-11.7h-14.5v-24.5h35.5v5h-29.2v14.4h29.6v5h0Z"/>
      <path class="st1" d="M1310.8,283.4l-3.3,4.9c-5.6-1.9-9.6-5.5-11.8-10.1-2.3,5.2-6.4,9.3-12.5,11.3l-3.3-5c8.2-2.5,12.5-8.8,12.5-15.7v-4.1h6.3v4.1c0,6.3,4.1,12.3,12.1,14.7h0ZM1323.1,304.6h-27.4v3.9h29.1v5h-35.2v-13.6h27.4v-3.6h-27.4v-4.9h33.7v13.2h-.2ZM1323.1,289.1h-6.3v-13h-10.2v-5h10.2v-8.2h6.3v26.2h0Z"/>
      <path class="st1" d="M1361.2,286.9l-3.2,5c-5.7-1.9-9.7-5.8-11.9-10.6-2.3,5.5-6.5,9.8-12.6,12l-3.3-5c8.2-2.8,12.6-9.7,12.6-16.5v-.4h-10.6v-5.1h27.6v5.1h-10.6v.3c0,6.2,4.1,12.5,12.1,15.2h0ZM1373.3,304.3c0,6.2-6.6,9.7-17.5,9.7s-17.4-3.6-17.4-9.7,6.6-9.7,17.4-9.7,17.5,3.6,17.5,9.7ZM1344.7,304.3c0,3.2,4,4.9,11.2,4.9s11.2-1.7,11.2-4.9-4.1-4.9-11.2-4.9-11.2,1.7-11.2,4.9ZM1373.2,293.3h-6.3v-12.5h-8.7v-5.1h8.7v-12.7h6.3v30.4h0Z"/>
    </g>
    <line class="st2" x1="924.8" y1="288.5" x2="1019.8" y2="288.5"/>
  </g>
  <rect class="st3" x="748.3" y="1.5" width="139.8" height="358.9" rx="13.6" ry="13.6"/>
  <rect class="st3" x="591.9" y="1.5" width="139.8" height="238.9" rx="13.6" ry="13.6"/>
  <g>
    <path class="st1" d="M811.2,44.4c.5-.3.9-.8,1.3-1.2,0,0,.2-.2.3-.3l1.9-1.9v23.5c.2,1.7,1.7,2.9,3.4,2.9s0,0,.2,0h0c3.1-.5,3.1-3,3.1-5v-21.4c.4.4.8.8,1.1,1.2,1,1,1.9,2,2.7,2.4,1.6.8,3.2,0,4.1-.9.8-1,1.2-2.7,0-4.1-.3-.4-.7-.7-1-1.1,0,0-.3-.2-.4-.4l-6.3-6.3c0-.1-.3-.3-.4-.4-.9-.9-2-2.1-3.5-1.9-1.2.1-1.8.8-2.5,1.5,0,.1-.3.3-.4.4l-6.1,6.1c-.2.2-.4.3-.6.5-.5.5-1,1-1.4,1.4-1.1,1.5-.7,3.2.3,4.3.9,1,2.5,1.6,4.1.7h.1Z"/>
    <path class="st1" d="M845.9,78.3v-14.2c0-1.6-1.4-2.9-3.1-2.9h0c-1.7,0-3.1,1.3-3.1,2.9v14.5c-.2,1.4-1.6,1.5-3.5,1.4h-37.9c-1.6,0-1.7-1.3-1.7-3v-12.9c0-1.6-1.4-2.9-3.1-2.9s-3.1,1.3-3.1,2.9v15.2c.4,3.2,3.4,6.1,6.8,6.4h41.6c3.4-.4,6.3-3,6.9-6.1v-1.4h.2Z"/>
  </g>
  <path class="st1" d="M831.6,200.3c-14.3,6.9-32.2,1.3-40.6-12.1-7.6-12.2-6.3-28.3,3.6-39,5.9-6.3,14.3-10.1,22.9-10.4,2.4-.1,3.8,2.4,2.7,4.4-.5.8-1.4,1.3-2.1,2-6,5.7-7.8,14.8-3.9,22.3,5.7,11.2,20.5,13.7,29.7,5.1.6-.6,1.1-1.3,1.9-1.7,2-1,4.4.4,4.6,2.7,0,1.9-1,6-1.6,7.7-3,8.8-9,15-17.2,19.1h0ZM808.7,147c-5.3,2-10.2,6.6-13,11.5-6.8,12.2-2.6,27.8,9.5,34.9,6.9,4,14.8,4.6,22.3,1.8.3-.1.7-.3,1-.4,5.9-2.8,10.3-7,12.9-13-6.3,3-12.5,3.4-19.1,1-12.8-4.6-19.9-19.2-15.2-32.2,0-.4,1.6-3.6,1.6-3.6h0Z"/>
  <g>
    <path class="st1" d="M825.5,249.3c1.7.2,3.6,1.6,4.4,3.1,1.7,3.1.2,8.4,4.5,9.6,3.6,1,6.8-3.2,11.2-1.5s2.5,1.8,3.5,3.3c2.2,3.5,4.1,7.3,6.2,10.8.8,2,.6,4.2-.7,5.9s-6.2,3.8-5.9,7.5,7.9,5.1,7,11.6c0,.8-.5,1.5-.8,2.2-1.5,3.1-3.9,7-5.8,10-.6,1-1.3,2.1-2.3,2.8-4.9,3.1-8.5-2.3-12.5-.9s-2.8,5.8-3.9,8.8-2.9,3.8-5.3,3.9c-3.6.3-9.7.3-13.3,0-2.7-.2-4.9-1.9-5.6-4.5s-.2-7.3-4.1-8.3c-3.7-1-6.8,3.4-11.3,1.5-1.7-.7-2.3-1.8-3.3-3.3-1.9-3-4.3-6.9-5.8-10s-1.2-3-.7-4.9c1.2-4.2,8.2-5.2,6.6-10.3-.8-2.5-4.2-3.8-5.7-5.9s-1.5-3.9-.7-5.9c1.3-3,4.4-8,6.2-10.8,1-1.5,1.7-2.7,3.5-3.3,4.4-1.7,7.5,2.5,11.2,1.5,4.3-1.3,2.8-6.5,4.5-9.5s2.6-2.7,4.5-3.2c4.5.4,10.1-.5,14.5,0h0v-.2ZM843.5,309.6l6.2-10.9c-2.3-2-5-3.6-6.2-6.6s-1.1-6.4.5-9.3c1.3-2.5,3.7-3.9,5.8-5.7l-6.2-10.9c-2.5.6-4.7,2-7.3,2.1-3.8.1-7.7-2-9.5-5.2-1.4-2.4-1.5-5-2-7.7h-12.7c-.5,2.6-.6,5.2-1.9,7.5-1.8,3.3-5.7,5.5-9.5,5.4s-4.9-1.5-7.5-2.1l-6.2,10.9c2.3,2,5,3.6,6.2,6.6,1.3,3,1.1,6.4-.5,9.3s-3.7,3.9-5.8,5.7l6.2,10.9c2.5-.6,4.7-2,7.3-2.1,3.8-.1,7.7,2,9.5,5.2,1.4,2.4,1.5,5,2,7.7h12.7c.5-2.6.6-5.2,1.9-7.5,1.8-3.3,5.7-5.5,9.5-5.4s4.9,1.5,7.5,2.1h0Z"/>
    <path class="st1" d="M833.2,287.1c.6,10.8-10.3,18.5-20.4,14.6-10.3-4-12.7-17.5-4.5-24.9,9.3-8.3,24.1-2.1,24.9,10.3ZM827.1,287.4c-.3-7-8.7-10.9-14.3-6.5-4.5,3.5-4.6,10.1-.3,13.8,5.9,5,14.9.4,14.5-7.3h0Z"/>
  </g>
  <path class="st1" d="M635.3,34.9c-1.8,0-3.2,1.5-3.2,3.2h0v10c0,1.6,1.2,3.1,2.7,3.3s3.7-1.3,3.7-3.2v-6.9h20.1v46.6h-6.9c-1.6,0-3.1,1.2-3.3,2.7s1.3,3.7,3.2,3.7h20.2c1.6,0,3.1-1.2,3.3-2.7.3-2-1.3-3.7-3.2-3.7h-6.9v-46.5h20.1v6.9c0,1.8,1.4,3.2,3.2,3.2h0c1.8,0,3.2-1.4,3.2-3.2v-10.1h0c0-1.8-1.5-3.2-3.2-3.2h-53,0Z"/>
  <path class="st1" d="M654.5,162.3h17.3l4.1-18c1.4-3.9,7.2-2.8,6.9,1.3l-3.8,16.7h14.8c.6,0,1.9.8,2.3,1.3,2,2.4.2,5.6-2.8,5.8h-15.9l-3,13.4h12.3c.5,0,1.8.7,2.2,1,2.4,2.3.5,6-2.7,6h-13.4l-4.1,17.8c-1.9,4.7-8.4,2.3-6.8-2.6l3.6-15.3h-17.2l-.2.3-4.1,17.8c-1.5,3.7-6.8,2.8-7-1.2l3.8-16.8h-11.1c-.6,0-1.9-.8-2.3-1.3-2-2.4-.2-5.6,2.8-5.8h12.3l3.2-13.4h-12.5s-.8-.3-1-.3c-3.5-1.5-2.4-6.6,1.5-6.7h13.6l4.1-18c1.6-4.1,7.5-2.5,6.9,1.8l-3.8,16.2h0ZM670.2,169.3h-17.3l-3,13.4h17.3l3-13.4Z"/>
</svg>