<?xml version="1.0" encoding="UTF-8"?>
<svg id="_레이어_2" data-name="레이어 2" xmlns="http://www.w3.org/2000/svg" viewBox="0 0 1477.5 498.49">
  <defs>
    <style>
      .cls-1 {
        fill: #fff;
      }

      .cls-2 {
        fill: #e1e1e1;
      }
    </style>
  </defs>
  <g id="_레이어_2-2" data-name=" 레이어 2">
    <g id="_레이어_2-2" data-name=" 레이어 2-2">
      <g id="_레이어_2-2-2" data-name=" 레이어 2-2">
        <g id="_레이어_1-2" data-name=" 레이어 1-2">
          <g>
            <g>
              <g>
                <path class="cls-2" d="M1094.76,57.68h-6.28v-4.47h-12.34v-4.81h12.34v-5.04h-11.66c-3.23,7.81-10.7,12.9-22.01,15.45l-2.21-5.15c12.03-2.49,18.02-7.78,18.9-14.6h-16.07v-5.09h23.09c0,1.61-.14,3.14-.34,4.58h10.3v-6.79h6.28v25.92h0ZM1094.76,73.13h-27.33v4.24h28.69v5.04h-34.97v-13.98h27.33v-3.79h-27.39v-4.98h33.67v13.47h0Z"/>
                <path class="cls-2" d="M1117.69,66.79c5.21-.2,10.55-.57,15.45-1.19l.34,4.7c-10.58,1.7-22.29,1.92-31.29,1.87l-.62-5.04c3.03-.03,6.39-.06,9.9-.17v-15.28h6.22v15.11h0ZM1130.59,40.71c0,4.58,0,10.98-1.41,19.81l-6.22-.51c1.22-7.75,1.36-13.47,1.41-17.88h-20.09v-5.04h26.31v3.62h0ZM1142.13,52.59h7.41v5.32h-7.41v25.01h-6.34V31.76h6.34v20.82h0Z"/>
                <path class="cls-2" d="M1198.78,59.72h-46.74v-4.75h46.74v4.75ZM1193.12,74.43h-29.31v3.57h30.84v4.36h-37.12v-12h29.37v-3.17h-29.43v-4.41h35.65v11.66h0ZM1193.01,44.44h-28.8v3.34h29.71v4.3h-35.93v-11.71h28.75v-3.11h-28.92v-4.36h35.2v11.54h0Z"/>
                <path class="cls-2" d="M1245.13,41.9h-4.92v23.03c2.32-.2,4.61-.4,6.79-.68l.28,4.53c-10.58,1.81-22.41,2.04-31.29,2.04l-.74-5.15,6.17-.06v-23.71h-4.87v-5.15h28.58v5.15h0ZM1234.16,65.27v-23.37h-6.62v23.6c2.18-.03,4.39-.11,6.62-.23ZM1256,51.57h7.87v5.15h-7.87v26.2h-6.28V31.76h6.28v19.81Z"/>
                <path class="cls-2" d="M1294.09,44.95c-.06,6.79-5.83,11.54-13.58,11.54s-13.58-4.75-13.58-11.54,5.77-11.54,13.58-11.54,13.52,4.81,13.58,11.54ZM1273.04,44.95c0,3.96,3.17,6.45,7.47,6.45s7.47-2.49,7.47-6.45-3.17-6.34-7.47-6.34-7.47,2.43-7.47,6.34ZM1308.63,73.19h-27.67v4.13h29.2v4.98h-35.37v-13.75h27.56v-3.79h-27.67v-4.92h33.95v13.36h0ZM1308.63,57.63h-6.34v-25.86h6.34v25.86Z"/>
                <path class="cls-2" d="M1362.85,76.98h-46.74v-5.21h20.14v-8.32h-14.6v-16.75h29.42v-6.34h-29.54v-5.09h35.76v16.41h-29.37v6.62h30.56v5.15h-16.01v8.32h20.37v5.21h0Z"/>
                <path class="cls-2" d="M1411.74,67.13l-3.73,5.04c-5.94-2.83-10.19-8.52-12.39-15.28-2.29,7.21-6.62,13.3-12.56,16.3l-3.79-4.92c8.21-3.85,13.02-13.58,13.07-22.92v-3.4h-10.98v-5.15h28.35v5.15h-10.98v3.4c0,8.83,4.75,18.22,13.01,21.79h0ZM1422.84,82.98h-6.28v-27.95h-9.85v-5.15h9.85v-18.11h6.28v51.21h0Z"/>
                <path class="cls-2" d="M1460.42,55.59l-3,4.92c-5.74-1.78-9.82-5.43-12.05-10.07-2.26,5.38-6.59,9.65-12.73,11.71l-3.17-4.98c8.26-2.72,12.56-9.34,12.56-16.13v-.62h-10.81v-5.09h27.78v5.09h-10.64v.56c0,6.28,4.07,12.17,12.05,14.6h.01ZM1470.88,73.08c-.06,6.17-6.56,9.79-17.15,9.79s-17.32-3.62-17.32-9.79,6.62-9.68,17.32-9.68,17.09,3.57,17.15,9.68ZM1442.7,73.08c0,3.17,4.02,4.87,11.03,4.87s10.92-1.7,10.92-4.87-3.9-4.75-10.92-4.75-11.03,1.64-11.03,4.75ZM1470.37,44.05h7.13v5.15h-7.13v13.07h-6.28v-30.5h6.28v12.28Z"/>
              </g>
              <path class="cls-2" d="M1019.75,58.87h-94.98c-.83,0-1.5-.67-1.5-1.5s.67-1.5,1.5-1.5h94.98c.83,0,1.5.67,1.5,1.5s-.67,1.5-1.5,1.5Z"/>
            </g>
            <g>
              <g>
                <path class="cls-2" d="M1076.15,169.8h-17.2v10.19c8.09-.06,14.4-.4,21.56-1.64l.57,5.09c-7.87,1.42-14.88,1.75-24.16,1.75h-4.19v-20.43h17.15v-9.17h-17.26v-5.09h23.54v19.3h-.01ZM1090.63,165.67h7.87v5.26h-7.87v26.31h-6.22v-51.21h6.22v19.64Z"/>
                <path class="cls-2" d="M1129,167.82c-.06,11.15-5.66,18.11-13.36,18.11s-13.36-6.96-13.36-18.11,5.6-18.05,13.36-18.05,13.3,7.02,13.36,18.05ZM1108.35,167.82c0,7.87,2.94,12.45,7.3,12.45s7.24-4.58,7.24-12.45-2.94-12.39-7.24-12.39-7.3,4.58-7.3,12.39ZM1143.21,197.25h-6.34v-51.21h6.34v51.21Z"/>
                <path class="cls-2" d="M1197.48,190.97h-46.74v-5.15h46.74v5.15ZM1192.33,177.84h-35.88v-27.78h35.43v5.09h-29.03v6.17h27.84v4.92h-27.84v6.62h29.48v4.98h0Z"/>
                <path class="cls-2" d="M1206.09,198.32h-6.34l13.24-49.06h6.28l-13.19,49.06h0Z"/>
                <path class="cls-2" d="M1247.63,155.99h-17.66v23.48c7.95,0,14.23-.4,21.28-1.64l.74,5.32c-7.92,1.36-14.83,1.58-24.05,1.58h-4.24v-33.84h23.94v5.09h0ZM1261.66,165.44h7.87v5.15h-7.87v26.65h-6.28v-51.21h6.28v19.41Z"/>
                <path class="cls-2" d="M1318.31,190.68h-46.63v-5.15h46.63v5.15ZM1313.16,156.9c0,7.41,0,14.49-2.26,25.29l-6.28-.57c1.05-4.47,1.64-8.4,1.98-12.05l-30.16,1.58-.85-5.09,31.29-1.19c.11-2.75.11-5.38.11-7.98v-1.02h-29.88v-5.09h36.04v6.11h.01Z"/>
                <path class="cls-2" d="M1382.26,190.97h-46.74v-5.15h20.14v-11.15h-14.99v-24.67h36.22v24.67h-15v11.15h20.37v5.15ZM1346.84,169.75h23.82v-14.71h-23.82v14.71Z"/>
                <path class="cls-2" d="M1432.34,190.68h-46.74v-5.2h46.74v5.2ZM1427.14,175.06h-35.88v-24.56h35.48v5.09h-29.26v14.43h29.65v5.04h.01Z"/>
              </g>
              <path class="cls-2" d="M1019.75,173.68h-94.98c-.83,0-1.5-.67-1.5-1.5s.67-1.5,1.5-1.5h94.98c.83,0,1.5.67,1.5,1.5s-.67,1.5-1.5,1.5Z"/>
            </g>
            <g>
              <g>
                <path class="cls-2" d="M19.45,40.31H6.04v5.26h11.49v4.81H6.04v5.66c6.14-.06,10.36-.28,15.34-1.19l.68,5.04c-5.89,1.02-10.75,1.13-18.67,1.13H0v-25.75h19.47v5.04h-.02,0ZM41.58,82.92h-6.28v-12.17H6.38v-5.04h35.2v17.2h0ZM31.5,63.23h-6v-13.19h-5.77v-5.09h5.77v-12.11h6v30.39ZM41.58,63.57h-6v-31.75h6v31.75Z"/>
                <path class="cls-2" d="M94.66,76.41h-46.74v-5.2h46.74v5.2ZM92.79,56.49l-2.83,5.26c-8.57-1.81-15.59-6.99-18.9-13.86-3.4,6.82-10.41,12.03-18.96,13.86l-2.77-5.26c10.58-1.92,18.28-9.84,18.33-17.71v-3.79h6.68v3.79c0,7.92,7.75,15.84,18.45,17.71Z"/>
                <path class="cls-2" d="M144.75,76.7h-46.74v-5.15h46.74v5.15ZM139.6,63.57h-35.88v-27.78h35.42v5.09h-29.03v6.17h27.84v4.92h-27.84v6.62h29.48v4.98h.01Z"/>
                <path class="cls-2" d="M191.04,41.9h-4.92v23.03c2.32-.2,4.61-.4,6.79-.68l.28,4.53c-10.58,1.81-22.41,2.04-31.29,2.04l-.74-5.15,6.17-.06v-23.71h-4.87v-5.15h28.58v5.15h0ZM180.06,65.27v-23.37h-6.62v23.6c2.18-.03,4.39-.11,6.62-.23ZM201.91,51.57h7.87v5.15h-7.87v26.2h-6.28V31.76h6.28v19.81Z"/>
                <path class="cls-2" d="M240,44.95c-.06,6.79-5.83,11.54-13.58,11.54s-13.58-4.75-13.58-11.54,5.77-11.54,13.58-11.54,13.52,4.81,13.58,11.54ZM218.94,44.95c0,3.96,3.17,6.45,7.47,6.45s7.47-2.49,7.47-6.45-3.17-6.34-7.47-6.34-7.47,2.43-7.47,6.34ZM254.54,73.19h-27.67v4.13h29.2v4.98h-35.37v-13.75h27.56v-3.79h-27.67v-4.92h33.95v13.36h0ZM254.54,57.63h-6.34v-25.86h6.34v25.86Z"/>
                <path class="cls-2" d="M308.75,76.98h-46.74v-5.21h20.14v-8.32h-14.6v-16.75h29.43v-6.34h-29.54v-5.09h35.76v16.41h-29.37v6.62h30.56v5.15h-16.01v8.32h20.37v5.21Z"/>
                <path class="cls-2" d="M357.65,67.13l-3.73,5.04c-5.94-2.83-10.19-8.52-12.39-15.28-2.29,7.21-6.62,13.3-12.56,16.3l-3.79-4.92c8.21-3.85,13.02-13.58,13.07-22.92v-3.4h-10.98v-5.15h28.35v5.15h-10.98v3.4c0,8.83,4.75,18.22,13.02,21.79h0ZM368.74,82.98h-6.28v-27.95h-9.85v-5.15h9.85v-18.11h6.28v51.21h0Z"/>
                <path class="cls-2" d="M406.32,55.59l-3,4.92c-5.74-1.78-9.82-5.43-12.05-10.07-2.26,5.38-6.59,9.65-12.73,11.71l-3.17-4.98c8.26-2.72,12.56-9.34,12.56-16.13v-.62h-10.81v-5.09h27.78v5.09h-10.64v.56c0,6.28,4.07,12.17,12.05,14.6h.01ZM416.79,73.08c-.06,6.17-6.56,9.79-17.15,9.79s-17.32-3.62-17.32-9.79,6.62-9.68,17.32-9.68,17.09,3.57,17.15,9.68ZM388.61,73.08c0,3.17,4.02,4.87,11.03,4.87s10.92-1.7,10.92-4.87-3.9-4.75-10.92-4.75-11.03,1.64-11.03,4.75ZM416.28,44.05h7.13v5.15h-7.13v13.07h-6.28v-30.5h6.28v12.28Z"/>
              </g>
              <path class="cls-2" d="M551.81,58.87h-94.98c-.83,0-1.5-.67-1.5-1.5s.67-1.5,1.5-1.5h94.98c.83,0,1.5.67,1.5,1.5s-.67,1.5-1.5,1.5Z"/>
            </g>
            <g>
              <g>
                <path class="cls-1" d="M26.06,144.88l33.09-2.44c4.06-.35,5.11-.11,7.66,1.74l10.56,7.44c1.74,1.28,2.32,1.63,2.32,3.02v40.81c0,2.56-.93,4.07-4.18,4.3l-38.43,2.33c-2.44.12-3.6-.23-4.88-1.86l-7.78-10.11c-1.4-1.86-1.97-3.26-1.97-4.88v-36.28c0-2.09.93-3.84,3.6-4.07h.01Z"/>
                <path d="M59.15,142.43l-33.09,2.44c-2.67.23-3.6,1.98-3.6,4.07v36.28c0,1.63.58,3.02,1.97,4.88l7.78,10.11c1.28,1.63,2.44,1.98,4.88,1.86l38.43-2.33c3.25-.23,4.18-1.74,4.18-4.3v-40.81c0-1.32-.52-1.7-2.06-2.83l-.26-.19-10.56-7.44c-2.56-1.86-3.6-2.09-7.66-1.74h-.01ZM37.97,153.97c-3.14.21-3.85.26-5.63-1.19l-4.53-3.6c-.46-.47-.23-1.05.93-1.16l31.81-2.32c2.67-.23,4.06.7,5.11,1.51l5.46,3.95c.23.12.81.81.12.81l-32.85,1.98-.41.03h0ZM34.31,195.1v-34.64c0-1.51.46-2.21,1.86-2.33l37.73-2.21c1.28-.12,1.86.7,1.86,2.21v34.41c0,1.51-.23,2.79-2.32,2.91l-36.11,2.09c-2.09.12-3.02-.58-3.02-2.44h0ZM69.95,162.31c.23,1.05,0,2.09-1.05,2.21l-1.74.34v25.58c-1.51.81-2.9,1.28-4.06,1.28-1.86,0-2.32-.58-3.71-2.32l-11.38-17.9v17.32l3.6.82s0,2.09-2.9,2.09l-8.01.46c-.23-.47,0-1.63.81-1.86l2.09-.58v-22.9l-2.9-.24c-.23-1.05.35-2.56,1.97-2.68l8.59-.58,11.84,18.14v-16.04l-3.02-.35c-.23-1.28.7-2.21,1.86-2.33l8.01-.47h0Z"/>
              </g>
              <g>
                <path class="cls-2" d="M139.6,174.15h-15.11v12.39h20.26v5.09h-46.74v-5.09h20.14v-12.39h-14.77v-23.48h6.45v18.39h29.77v5.09h0Z"/>
                <path class="cls-2" d="M178.59,172.85l-3.51,4.87c-5.46-2.15-9.36-6.42-11.49-11.71-2.21,5.66-6.34,10.16-12.22,12.45l-3.4-4.98c8.15-2.94,12.34-10.19,12.39-17.83v-6.11h6.34v6.11c0,7.19,4.02,14.26,11.88,17.2h0ZM192.06,196.73h-34.86v-15.84h6.39v10.75h28.46v5.09h.01ZM190.93,184.62h-6.28v-15.84h-9.34v-5.04h9.34v-5.04h-9.34v-5.09h9.34v-6.96h6.28v37.97h0Z"/>
                <path class="cls-2" d="M258.67,191.86h-46.74v-5.09h12.11v-10.52h-8.09v-5.09h7.19v-15.17h-7.36v-5.04h38.82v5.04h-7.47v15.17h7.3v5.09h-8.09v10.52h12.34v5.09h-.01ZM240.9,171.15v-15.17h-11.49v15.17h11.49ZM240.05,186.77v-10.52h-9.73v10.52h9.73Z"/>
                <path class="cls-2" d="M308.75,191.81h-46.74v-5.21h20.14v-8.32h-14.6v-16.75h29.43v-6.34h-29.54v-5.09h35.76v16.41h-29.37v6.62h30.56v5.15h-16.01v8.32h20.37v5.21h0Z"/>
                <path class="cls-2" d="M357.65,181.96l-3.73,5.04c-5.94-2.83-10.19-8.52-12.39-15.28-2.29,7.21-6.62,13.3-12.56,16.3l-3.79-4.92c8.21-3.85,13.02-13.58,13.07-22.92v-3.4h-10.98v-5.15h28.35v5.15h-10.98v3.4c0,8.83,4.75,18.22,13.02,21.79h0ZM368.74,197.8h-6.28v-27.95h-9.85v-5.15h9.85v-18.11h6.28v51.21h0Z"/>
                <path class="cls-2" d="M406.32,170.41l-3,4.92c-5.74-1.78-9.82-5.43-12.05-10.07-2.26,5.38-6.59,9.65-12.73,11.71l-3.17-4.98c8.26-2.72,12.56-9.34,12.56-16.13v-.62h-10.81v-5.09h27.78v5.09h-10.64v.56c0,6.28,4.07,12.17,12.05,14.6h.01ZM416.79,187.9c-.06,6.17-6.56,9.79-17.15,9.79s-17.32-3.62-17.32-9.79,6.62-9.68,17.32-9.68,17.09,3.57,17.15,9.68ZM388.61,187.9c0,3.17,4.02,4.87,11.03,4.87s10.92-1.7,10.92-4.87-3.9-4.75-10.92-4.75-11.03,1.64-11.03,4.75ZM416.28,158.87h7.13v5.15h-7.13v13.07h-6.28v-30.5h6.28v12.28Z"/>
              </g>
              <path class="cls-2" d="M551.81,173.7h-94.98c-.83,0-1.5-.67-1.5-1.5s.67-1.5,1.5-1.5h94.98c.83,0,1.5.67,1.5,1.5s-.67,1.5-1.5,1.5Z"/>
            </g>
            <g>
              <g>
                <path class="cls-2" d="M178.17,483.33h-19.14v-26.47h19.14v26.47ZM163.91,479.35h9.3v-18.6h-9.3v18.6ZM189.26,468.43h6.22v4.2h-6.22v20.71h-4.96v-40.43h4.96v15.52h0Z"/>
                <path class="cls-2" d="M234.04,488.2h-36.85v-4.07h36.85v4.07h0ZM229.97,461.5c0,5.86,0,11.45-1.79,19.99l-4.96-.45c.83-3.53,1.3-6.64,1.56-9.53l-23.84,1.25-.67-4.02,24.73-.94c.09-2.17.09-4.25.09-6.31v-.8h-23.61v-4.02h28.49v4.83h0Z"/>
                <path class="cls-2" d="M257.35,460.79h-13.95v18.56c6.28,0,11.25-.31,16.82-1.3l.58,4.2c-6.26,1.07-11.72,1.25-19.01,1.25h-3.35v-26.74h18.92v4.02h0ZM268.44,468.26h6.22v4.07h-6.22v21.06h-4.96v-40.47h4.96v15.34h0Z"/>
                <path class="cls-2" d="M313.27,476.89h-15.61v7.42h-5.05v-7.42h-16.28v-3.98h36.94v3.98h0ZM309.24,462.08c0,5.1-5.77,8.23-14.49,8.23s-14.49-3.13-14.49-8.23,5.77-8.27,14.49-8.27,14.49,3.18,14.49,8.27ZM309.2,492.54h-28.35v-11.98h5.01v7.91h23.34v4.07ZM285.63,462.08c-.04,2.68,3.58,4.25,9.12,4.25s9.17-1.56,9.17-4.25-3.58-4.34-9.17-4.34-9.17,1.57-9.12,4.34Z"/>
                <path class="cls-2" d="M325.09,455.6h5.37c-3.09,4.43-6.17,13.42-6.17,21.42s3.09,16.99,6.17,21.47h-5.37c-4.2-6.04-6.71-13.01-6.71-21.47s2.5-15.43,6.71-21.42Z"/>
                <path class="cls-2" d="M334.53,486.23c0-1.88,1.56-3.44,3.49-3.44s3.44,1.57,3.44,3.44-1.61,3.49-3.44,3.49-3.49-1.57-3.49-3.49Z"/>
                <path class="cls-2" d="M346.96,465.08h5.46v4.11h.31c.98-2.77,3.44-4.43,6.66-4.43s5.64,1.65,6.57,4.43h.27c1.07-2.68,3.76-4.43,7.29-4.43,4.43,0,7.56,2.86,7.56,8.27v16.32h-5.68v-15.43c0-3.04-1.83-4.38-4.16-4.38-2.82,0-4.43,1.92-4.43,4.65v15.16h-5.54v-15.65c0-2.51-1.7-4.16-4.11-4.16s-4.47,2.01-4.47,5.05v14.76h-5.72v-24.28h-.01Z"/>
                <path class="cls-2" d="M385.57,477.24c0-8.09,4.43-12.48,10.06-12.48,4.29,0,6.08,2.55,6.93,4.29h.22v-12.07h5.68v32.38h-5.59v-3.85h-.31c-.89,1.79-2.77,4.29-6.98,4.29-5.72,0-10.02-4.56-10.02-12.57h.01ZM402.92,477.2c0-4.69-2.06-7.78-5.77-7.78s-5.77,3.26-5.77,7.78,2.01,7.92,5.77,7.92,5.77-3.18,5.77-7.92Z"/>
                <path class="cls-2" d="M418.18,498.49h-5.37c3.09-4.47,6.17-13.46,6.17-21.47s-3.09-16.99-6.17-21.42h5.37c4.2,5.99,6.71,13.01,6.71,21.42s-2.5,15.43-6.71,21.47Z"/>
                <path class="cls-2" d="M463.94,460.92h-3.89v18.2c1.83-.16,3.64-.31,5.37-.54l.22,3.58c-8.36,1.43-17.71,1.61-24.73,1.61l-.58-4.07,4.87-.04v-18.74h-3.85v-4.07h22.58v4.07h.01ZM455.26,479.39v-18.47h-5.23v18.65c1.72-.02,3.47-.09,5.23-.18h0ZM472.52,468.57h6.22v4.07h-6.22v20.71h-4.96v-40.43h4.96v15.65h0Z"/>
                <path class="cls-2" d="M502.63,463.34c-.04,5.37-4.61,9.12-10.73,9.12s-10.73-3.76-10.73-9.12,4.56-9.12,10.73-9.12,10.69,3.8,10.73,9.12ZM486,463.34c0,3.13,2.5,5.1,5.9,5.1s5.9-1.97,5.9-5.1-2.5-5.01-5.9-5.01-5.9,1.92-5.9,5.01ZM514.13,485.65h-21.87v3.27h23.07v3.93h-27.95v-10.87h21.78v-3h-21.87v-3.89h26.83v10.55h.01ZM514.13,473.35h-5.01v-20.44h5.01v20.44Z"/>
                <path class="cls-2" d="M556.89,473.58h-36.85v-3.98h36.85v3.98ZM553,460.47c-.04,4.52-5.37,6.93-14.58,6.98-9.21-.04-14.58-2.46-14.58-6.98s5.37-6.93,14.58-6.93,14.53,2.46,14.58,6.93ZM552.29,486.19h-22.99v3h24.1v3.8h-28.98v-10.33h22.99v-2.68h-23.03v-3.67h27.91v9.88h0ZM529.08,460.47c-.04,2.24,3.18,3.27,9.35,3.27s9.44-1.03,9.44-3.27c0-2.1-3.18-3.27-9.44-3.27s-9.39,1.16-9.35,3.27Z"/>
                <path class="cls-2" d="M603.37,474.69h-11.94v9.79h16.01v4.02h-36.94v-4.02h15.92v-9.79h-11.67v-18.56h5.1v14.53h23.52v4.02h0Z"/>
                <path class="cls-2" d="M634.2,473.67l-2.77,3.85c-4.32-1.7-7.4-5.08-9.08-9.26-1.74,4.47-5.01,8.03-9.66,9.84l-2.68-3.93c6.44-2.33,9.75-8.05,9.79-14.09v-4.83h5.01v4.83c0,5.68,3.18,11.27,9.39,13.6h0ZM644.84,492.54h-27.55v-12.52h5.05v8.5h22.49v4.02h.01ZM643.95,482.97h-4.96v-12.52h-7.38v-3.98h7.38v-3.98h-7.38v-4.02h7.38v-5.5h4.96v30.01h0Z"/>
                <path class="cls-2" d="M676.25,491.37h-4.74v-19.23h-3.85c-.47,7.87-3.85,12.75-8.85,12.7-5.28.04-8.72-5.55-8.72-14.44s3.44-14.4,8.72-14.4c4.9,0,8.23,4.56,8.81,12.12h3.89v-14.49h4.74v37.74h0ZM654.7,470.4c-.04,6.31,1.56,9.75,4.11,9.7,2.68.04,4.29-3.4,4.29-9.7s-1.61-9.75-4.29-9.7c-2.55-.04-4.16,3.4-4.11,9.7ZM684.57,493.34h-4.78v-40.43h4.78v40.43Z"/>
                <path class="cls-2" d="M737,473.58h-16.01v3h11.4v9.79h-22.99v2.82h24.1v3.8h-28.98v-10.11h22.99v-2.64h-23.03v-3.67h11.54v-3h-15.88v-4.07h36.85v4.07h.01ZM709.85,456.72h17.44v-3.18h4.92v13.46h-27.28v-13.46h4.92v3.18h0ZM727.29,463.29v-2.95h-17.44v2.95h17.44Z"/>
                <path class="cls-2" d="M759.37,471.25h-13.24v8.5c5.99-.02,10.84-.22,16.28-1.21l.4,4.07c-6.04,1.07-11.4,1.3-18.38,1.3h-3.22v-16.68h13.28v-6.75h-13.42v-4.02h18.29v14.8h0ZM773.59,493.39h-4.96v-21.51h-6.93v-4.07h6.93v-14.89h4.96v40.47h0Z"/>
                <path class="cls-2" d="M812.78,466.11c0,6.06-5.21,10.11-12.61,10.82v7.42h16.1v4.07h-36.94v-4.07h15.92v-7.42c-7.36-.71-12.57-4.76-12.52-10.82-.04-6.57,6.35-10.91,14.98-10.91s15.07,4.34,15.07,10.91h0ZM787.6,466.11c-.04,4.38,4.2,6.98,10.11,6.98s10.2-2.59,10.2-6.98-4.2-6.93-10.2-6.89c-5.9-.04-10.15,2.64-10.11,6.89Z"/>
                <path class="cls-2" d="M839.67,459.53h8.14v-6.57h4.96v29.42h-4.96v-10.2h-8.14v3.49h-19.01v-19.36h19.01v3.22h0ZM825.63,471.79h9.12v-11.54h-9.12v11.54ZM853.67,492.54h-27.55v-12.88h5.05v8.85h22.49v4.02h.01ZM847.81,468.21v-4.61h-8.14v4.61h8.14Z"/>
                <path class="cls-2" d="M893.98,480.73l-2.77,3.93c-4.56-2.15-7.94-6.48-9.75-11.54-1.83,5.54-5.37,10.29-10.02,12.52l-2.91-3.89c6.44-3.04,10.33-10.64,10.38-17.35v-3.4h-8.81v-4.11h22.22v4.11h-8.45v3.4c0,6.26,3.71,13.37,10.11,16.32h0ZM901.04,468.66h6.22v4.16h-6.22v20.53h-4.96v-40.43h4.96v15.74Z"/>
                <path class="cls-2" d="M945.86,476.26h-36.89v-3.98h16.01v-3.85h-11.49v-13.68h27.9v3.89h-22.94v5.86h23.16v3.93h-11.76v3.85h16.01v3.98h0ZM941.35,485.96c-.04,4.69-5.28,7.38-14,7.38s-14.09-2.68-14.09-7.38,5.28-7.38,14.09-7.38,13.95,2.64,14,7.38ZM918.32,485.96c-.04,2.33,3.13,3.53,9.03,3.53s8.99-1.21,9.03-3.53c-.04-2.33-3.27-3.58-9.03-3.58s-9.08,1.25-9.03,3.58Z"/>
                <path class="cls-2" d="M985.5,488.24h-36.94v-4.07h36.94v4.07ZM982.01,466.6c0,6.98-6.53,11.49-15.07,11.49s-15.03-4.52-14.98-11.49c-.04-6.89,6.49-11.4,14.98-11.4s15.07,4.52,15.07,11.4ZM956.75,466.6c0,4.56,4.34,7.42,10.2,7.42s10.2-2.86,10.2-7.42-4.29-7.42-10.2-7.38c-5.86-.04-10.2,2.91-10.2,7.38Z"/>
                <path class="cls-2" d="M1025.09,488.65h-36.94v-4.11h15.92v-6.57h-11.54v-13.24h23.25v-5.01h-23.34v-4.02h28.26v12.97h-23.21v5.23h24.15v4.07h-12.66v6.57h16.1v4.11h.01Z"/>
                <path class="cls-2" d="M1075.55,488.69h-36.94v-4.02h9.57v-8.32h-6.4v-4.02h5.68v-11.99h-5.81v-3.98h30.68v3.98h-5.9v11.99h5.77v4.02h-6.4v8.32h9.75v4.02ZM1061.51,472.33v-11.99h-9.08v11.99h9.08ZM1060.84,484.67v-8.32h-7.69v8.32h7.69Z"/>
                <path class="cls-2" d="M1080.8,486.05l-2.82-3.85c9.84-4.9,15.16-11.78,16.19-20.97h-14v-4.11h19.01c0,11.89-4.92,22.31-18.38,28.93h0ZM1109.87,468.7h5.99v4.16h-5.99v20.39h-4.96v-40.34h4.96v15.79h0Z"/>
                <path class="cls-2" d="M1139.62,471.56v-3.58h-7.38v-13.15h19.45v3.98h-14.44v5.28h14.76v3.89h-7.42v3.4c3.4-.18,6.82-.45,10.02-.85l.27,3.44c-8.68,1.48-18.25,1.61-25.45,1.7l-.67-3.98c3.24,0,6.98-.02,10.87-.13h-.01ZM1140.16,481.49h17.35v-3.53h4.92v14.89h-27.23v-14.89h4.96v3.53ZM1157.51,488.83v-3.62h-17.35v3.62h17.35ZM1162.43,476.26h-5.01v-23.3h5.01v23.3Z"/>
                <path class="cls-2" d="M1175.5,478.94c5.68-.09,11.72-.6,17.93-1.83l.63,4.16c-7.11,1.48-13.73,1.92-19.99,1.92h-3.49v-26.34h4.92v22.09h0ZM1201.97,493.34h-4.92v-40.43h4.92v40.43Z"/>
                <path class="cls-2" d="M1228.42,460.79h-13.95v18.56c6.28,0,11.25-.31,16.81-1.3l.58,4.2c-6.26,1.07-11.72,1.25-19,1.25h-3.35v-26.74h18.92v4.02h-.01ZM1239.51,468.26h6.22v4.07h-6.22v21.06h-4.96v-40.47h4.96v15.34h0Z"/>
                <path class="cls-2" d="M1248.87,486.23c0-1.88,1.57-3.44,3.49-3.44s3.44,1.57,3.44,3.44-1.61,3.49-3.44,3.49-3.49-1.57-3.49-3.49Z"/>
              </g>
              <g>
                <path class="cls-2" d="M661.77,283.81c-.83,0-1.5-.67-1.5-1.5v-5c0-.83.67-1.5,1.5-1.5s1.5.67,1.5,1.5v5c0,.83-.67,1.5-1.5,1.5Z"/>
                <path class="cls-2" d="M661.77,400.76c-.83,0-1.5-.67-1.5-1.5v-10.17c0-.83.67-1.5,1.5-1.5s1.5.67,1.5,1.5v10.17c0,.83-.67,1.5-1.5,1.5ZM661.77,377.37c-.83,0-1.5-.67-1.5-1.5v-10.17c0-.83.67-1.5,1.5-1.5s1.5.67,1.5,1.5v10.17c0,.83-.67,1.5-1.5,1.5ZM661.77,353.98c-.83,0-1.5-.67-1.5-1.5v-10.17c0-.83.67-1.5,1.5-1.5s1.5.67,1.5,1.5v10.17c0,.83-.67,1.5-1.5,1.5ZM661.77,330.59c-.83,0-1.5-.67-1.5-1.5v-10.17c0-.83.67-1.5,1.5-1.5s1.5.67,1.5,1.5v10.17c0,.83-.67,1.5-1.5,1.5ZM661.77,307.2c-.83,0-1.5-.67-1.5-1.5v-10.17c0-.83.67-1.5,1.5-1.5s1.5.67,1.5,1.5v10.17c0,.83-.67,1.5-1.5,1.5Z"/>
                <path class="cls-2" d="M661.77,418.99c-.83,0-1.5-.67-1.5-1.5v-5c0-.83.67-1.5,1.5-1.5s1.5.67,1.5,1.5v5c0,.83-.67,1.5-1.5,1.5Z"/>
              </g>
            </g>
            <g>
              <g>
                <path class="cls-2" d="M1072.52,298.56c4.44-.23,8.91-.62,13.13-1.24l.51,4.64c-11.49,2.09-23.77,2.21-32.76,2.21l-.79-5.09c3.99-.03,8.69-.06,13.64-.23v-8.55h6.28v8.26h-.01ZM1083.56,274.29h-10.92c.28,5.46,4.61,10.38,12.34,12.34l-2.89,4.92c-6.06-1.64-10.38-5.18-12.68-9.73-2.26,4.81-6.54,8.49-12.62,10.13l-3-4.75c7.72-2.12,11.97-7.16,12.34-12.9h-10.81v-5.09h10.92v-5.83h6.28v5.83h11.04v5.09h0ZM1094.99,314.13h-6.28v-51.21h6.28v51.21Z"/>
                <path class="cls-2" d="M1149.21,307.73h-46.74v-5.09h20.03v-11.83h6.22v11.83h20.48v5.09h.01ZM1147.39,286.85l-2.72,5.2c-8.66-1.64-15.73-6.59-19.13-13.3-3.4,6.68-10.41,11.71-19.01,13.3l-2.72-5.2c10.7-1.7,18.33-9.39,18.39-17.09v-3.74h6.68v3.74c0,7.75,7.75,15.39,18.5,17.09h0Z"/>
                <path class="cls-2" d="M1175.13,274.34h12.17v-7.75h6.28v25.63h-24.67v-25.63h6.22v7.75ZM1210.1,313.05h-35.25v-16.3h6.34v11.21h28.91v5.09h0ZM1187.3,287.25v-8.04h-12.17v8.04h12.17ZM1208.91,300.6h-6.34v-37.63h6.34v37.63Z"/>
                <path class="cls-2" d="M1257.92,291.15h-15.16v11.71h20.37v5.15h-46.74v-5.15h20.14v-11.71h-14.49v-24.45h35.48v5.04h-29.2v14.43h29.59v4.98h.01Z"/>
                <path class="cls-2" d="M1310.84,283.4l-3.34,4.87c-5.55-1.87-9.56-5.46-11.77-10.13-2.26,5.23-6.45,9.28-12.51,11.26l-3.28-5.04c8.21-2.49,12.51-8.77,12.51-15.68v-4.07h6.34v4.07c0,6.28,4.13,12.28,12.05,14.71h0ZM1323.06,304.56h-27.44v3.9h29.09v4.98h-35.25v-13.58h27.39v-3.62h-27.45v-4.92h33.67v13.24h-.01ZM1323.06,289.11h-6.28v-12.96h-10.19v-5.04h10.19v-8.21h6.28v26.2h0Z"/>
                <path class="cls-2" d="M1361.15,286.85l-3.17,4.98c-5.69-1.92-9.73-5.83-11.94-10.64-2.26,5.46-6.54,9.82-12.62,12l-3.28-4.98c8.21-2.83,12.56-9.73,12.56-16.47v-.4h-10.64v-5.09h27.61v5.09h-10.58v.34c0,6.22,4.13,12.51,12.05,15.17h0ZM1373.32,304.34c0,6.17-6.62,9.73-17.48,9.73s-17.43-3.57-17.37-9.73c-.06-6.17,6.56-9.73,17.37-9.73s17.48,3.57,17.48,9.73ZM1344.68,304.34c0,3.17,4.02,4.87,11.15,4.87s11.2-1.7,11.2-4.87-4.07-4.92-11.2-4.92-11.15,1.7-11.15,4.92ZM1373.15,293.3h-6.28v-12.51h-8.72v-5.15h8.72v-12.73h6.28v30.39h0Z"/>
              </g>
              <path class="cls-2" d="M1019.75,290.02h-94.98c-.83,0-1.5-.67-1.5-1.5s.67-1.5,1.5-1.5h94.98c.83,0,1.5.67,1.5,1.5s-.67,1.5-1.5,1.5Z"/>
            </g>
            <g>
              <path class="cls-2" d="M874.52,361.93h-112.66c-8.3,0-15.05-6.75-15.05-15.05V15.05c0-8.3,6.75-15.05,15.05-15.05h112.66c8.3,0,15.05,6.75,15.05,15.05v331.83c0,8.3-6.75,15.05-15.05,15.05ZM761.86,3c-6.64,0-12.05,5.41-12.05,12.05v331.83c0,6.64,5.41,12.05,12.05,12.05h112.66c6.64,0,12.05-5.41,12.05-12.05V15.05c0-6.64-5.41-12.05-12.05-12.05h-112.66Z"/>
              <g>
                <path class="cls-2" d="M796.98,79.42c.38.38,1.01.69,1.56.7l39.77-.06c.91-.27,1.62-1.02,1.79-1.95.24-3.77-.29-7.86,0-11.59.17-2.14,1.77-3.39,3.87-2.7,1.24.41,1.71,1.47,1.81,2.7.24,3.08.21,8.12,0,11.22-.31,4.57-3.48,7.75-8.05,8.05h-39.06c-4.5-.3-7.71-3.42-8.05-7.93-.23-3.09-.25-8.27,0-11.34.17-2.13,1.77-3.39,3.87-2.7,1.24.41,1.71,1.47,1.81,2.7.29,3.65-.39,7.89,0,11.47.05.51.33,1.08.69,1.44h-.01Z"/>
                <path class="cls-2" d="M815.36,40.29l-6.31,6.25c-2.75,2.17-6.17-1.18-3.87-4,3.16-3.87,7.91-7.36,11.21-11.21,1.02-.78,2.6-.82,3.61,0l11.27,11.28c2.21,2.7-1.24,6.14-3.93,3.93l-6.31-6.25v26.48c0,.1-.21.73-.27.89-.78,1.95-3.85,2.15-4.91.43-.15-.25-.49-1.07-.49-1.31v-26.48h0Z"/>
              </g>
              <path class="cls-2" d="M821.47,204.02c-1.34.09-3.29.09-4.63,0-20.05-1.36-34.51-21.05-29.93-40.67,3.43-14.68,18.23-26.61,33.6-25.23,1.74.16,2.76,1.7,2.47,3.39-.22,1.31-1.85,2.19-2.74,3.05-9.92,9.58-8.29,26.09,3.22,33.6,6.43,4.2,14.14,4.49,21.09,1.39,1.52-.67,2.51-1.86,4.32-.93,2.54,1.3,1.15,4.14.29,6.06-4.78,10.77-15.9,18.58-27.69,19.35h0ZM812.98,144.43c-10.73,2.65-18.76,10.89-20.68,21.86-3.62,20.65,16.23,37.63,36.06,30.53,5.31-1.9,10.2-5.59,13.32-10.3-8.12,1.8-16.46.1-23.03-4.97-10.53-8.12-13.59-22.65-7.29-34.42l1.61-2.7h.01Z"/>
              <g>
                <path class="cls-2" d="M780.61,295.31v-14.66c.67-2.36,2.12-4,4.54-4.62,2.61-.67,5.85-.12,7.4-2.86,2.32-4.13-4.06-8.23-.27-13.17.72-.94,1.77-1.48,2.75-2.09,2.84-1.77,6.9-4.29,9.87-5.67,1.58-.73,3.15-.88,4.82-.32,3.22,1.08,4.52,6.03,7.63,6.44,4.84.64,5.34-5.04,9.11-6.4,1.97-.71,3.61-.39,5.42.53,3.11,1.58,7.4,4.04,10.3,5.97.92.61,1.59,1.09,2.18,2.07,2.94,4.83-2.7,8.47-.73,12.46,1.56,3.16,5.59,2.27,8.38,3.35,2.05.79,3.33,2.53,3.67,4.69-.24,4.45.33,9.23,0,13.64-.19,2.64-2.02,4.62-4.55,5.28s-6.07.13-7.51,3.05c-1.33,2.7.75,5.2,1.39,7.75.75,2.99-.39,5.14-2.84,6.77-2.89,1.92-7.48,4.61-10.59,6.12-1.69.82-3.2,1.03-5.01.42-3.84-1.29-4.36-7.09-9.22-6.44-3.07.41-4.41,5.27-7.52,6.4-1.68.61-3.33.46-4.93-.28-3.05-1.42-7.94-4.33-10.78-6.22-.89-.59-1.54-1.05-2.13-1.98-3.09-4.87,2.75-8.62.62-12.64-1.48-2.81-4.86-2.28-7.45-2.95-2.42-.62-3.87-2.26-4.54-4.62v-.02h0ZM849.8,281.82c-5.03-.42-9.68-1.72-11.79-6.75-1.79-4.28-.29-7.42,1.18-11.43l-10.42-6.01c-1.23.91-2.07,2.48-3.15,3.6-4.13,4.26-10.94,4.19-15.03-.07-.49-.51-2.67-3.52-3.07-3.52l-10.42,6.01c1.45,4.01,2.97,7.17,1.18,11.43-2.11,5.03-6.77,6.33-11.79,6.75v12.31c4.96.41,9.63,1.7,11.75,6.65,1.84,4.3.34,7.48-1.14,11.54l10.42,6.01c1.23-.91,2.07-2.48,3.15-3.6,4.13-4.26,10.94-4.19,15.03.07.49.51,2.67,3.52,3.07,3.52l10.42-6.01c-1.49-4.06-2.99-7.23-1.14-11.54,2.13-4.96,6.77-6.22,11.75-6.65v-12.31h0Z"/>
                <path class="cls-2" d="M828.35,298.33c-6.65,6.56-18,5.13-22.7-2.93-6.47-11.1,3.35-24.43,15.83-21.55,11.04,2.55,14.96,16.49,6.87,24.48h0ZM816.93,279.51c-10.55,1.21-9.34,18.13,2.29,16.95,10.7-1.08,9.51-18.3-2.29-16.95Z"/>
              </g>
            </g>
            <g>
              <path class="cls-2" d="M718.1,241.88h-112.66c-8.3,0-15.05-6.75-15.05-15.05V15.05c0-8.3,6.75-15.05,15.05-15.05h112.66c8.3,0,15.05,6.75,15.05,15.05v211.78c0,8.3-6.75,15.05-15.05,15.05ZM605.44,3c-6.64,0-12.05,5.41-12.05,12.05v211.78c0,6.64,5.41,12.05,12.05,12.05h112.66c6.64,0,12.05-5.41,12.05-12.05V15.05c0-6.64-5.41-12.05-12.05-12.05h-112.66Z"/>
              <path class="cls-2" d="M684.86,41.44h-19.67v46.15h7.2c.06,0,.81.35.96.43,2.83,1.5,2.03,5.98-1.42,6.23-6.6.49-13.8-.39-20.46,0-2.78-.24-3.98-3.78-1.99-5.72.24-.24,1.43-.95,1.69-.95h7.2v-46.15h-19.67v7.2s-.33.86-.4.99c-1.37,2.63-5.47,2.13-6.19-.75l-.06-11.54c.36-1.2,1.11-2.08,2.3-2.5l54.15-.07c1.42,0,2.58,1.13,2.98,2.44l-.03,11.67c-.72,2.88-4.82,3.38-6.19.75-.07-.13-.4-.94-.4-.99v-7.2h0Z"/>
              <path class="cls-2" d="M654.51,160.7h17.32l4.11-18.56c1.39-4.03,7.22-2.89,6.94,1.33l-3.8,17.23h14.76c.58,0,1.92.84,2.31,1.32,2.04,2.47.24,5.79-2.8,5.95h-15.92l-2.97,13.85h12.29c.47,0,1.8.68,2.17,1.05,2.36,2.35.54,6.15-2.66,6.21h-13.43l-4.09,18.43c-1.92,4.88-8.43,2.37-6.76-2.64l3.58-15.8h-17.23l-.21.28-4.08,18.35c-1.51,3.85-6.79,2.86-7.01-1.23l3.8-17.41h-11.13c-.58,0-1.92-.84-2.31-1.32-2.03-2.45-.25-5.82,2.8-5.95l12.27-.02,3.16-13.83h-12.45c-.07,0-.82-.28-.97-.35-3.54-1.56-2.38-6.8,1.46-6.91h13.6l4.08-18.59c1.6-4.22,7.53-2.59,6.93,1.82l-3.75,16.78h-.01ZM670.18,167.96h-17.32l-2.97,13.85h17.32l2.97-13.85Z"/>
            </g>
          </g>
        </g>
      </g>
    </g>
  </g>
</svg>