<?xml version="1.0" encoding="UTF-8"?>
<svg id="_레이어_1" xmlns="http://www.w3.org/2000/svg" version="1.1" viewBox="0 0 200 200">
  <!-- Generator: Adobe Illustrator 29.4.0, SVG Export Plug-In . SVG Version: 2.1.0 Build 152)  -->
  <path d="M27.3,67.9c-15.1,0-27.3,12.3-27.3,27.3s12.3,27.3,27.3,27.3,27.3-12.3,27.3-27.3-12.3-27.3-27.3-27.3ZM27.2,83.4c6.5,0,11.8,5.3,11.8,11.8s-5.3,11.8-11.8,11.8-11.8-5.3-11.8-11.8,5.3-11.8,11.8-11.8Z"/>
  <path d="M100,67.9c-15.1,0-27.3,12.3-27.3,27.3s12.3,27.3,27.3,27.3,27.3-12.3,27.3-27.3-12.3-27.3-27.3-27.3ZM111.7,95.2c0,6.5-5.3,11.8-11.8,11.8s-11.8-5.3-11.8-11.8,5.3-11.8,11.8-11.8,11.8,5.3,11.8,11.8Z"/>
  <path d="M172.7,67.9c-15.1,0-27.3,12.3-27.3,27.3s12.3,27.3,27.3,27.3,27.3-12.3,27.3-27.3-12.3-27.3-27.3-27.3ZM184.5,95.2c0,6.5-5.3,11.8-11.8,11.8s-11.8-5.3-11.8-11.8,5.3-11.8,11.8-11.8,11.8,5.3,11.8,11.8Z"/>
</svg>