<?xml version="1.0" encoding="UTF-8"?>
<svg id="_레이어_2" data-name="레이어 2" xmlns="http://www.w3.org/2000/svg" viewBox="0 0 269.2 281.01">
  <defs>
    <style>
      .cls-1 {
        fill: #fff;
      }
    </style>
  </defs>
  <g id="_레이어_2-2" data-name=" 레이어 2">
    <g>
      <path class="cls-1" d="M16.91,12.28L172.39,1c19.26-1.88,23.96-.47,36.17,7.99,0,0,60.59,42.28,60.59,48.85v191.65c0,12.21-4.23,19.26-19.73,20.2l-180.37,10.8c-11.27.47-16.91-.94-23.02-8.92l-36.64-47.44c-6.58-8.92-9.39-15.5-9.39-23.02V30.6C0,20.73,16.91,12.28,16.91,12.28Z"/>
      <path d="M172.44.52c-5.39.39-155.48,11.27-155.48,11.27C4.28,12.73.05,21.19.05,31.05v170.51c0,7.52,2.82,14.09,9.39,23.02l36.64,47.44c6.11,7.52,11.27,9.39,23.02,8.92l180.37-10.8c15.03-.94,19.73-7.99,19.73-20.2V58.29c0-7.29-1.91-8.35-9.43-13.52l-1.41-.94-49.23-35.4C197.5-2.35,177.83.13,172.44.52ZM72.86,55.01c-14.56.94-17.85,1.41-26.3-5.64l-21.14-16.91c-2.35-2.35-.94-5.17,4.23-5.64l149.37-10.8c12.68-.94,19.26,3.29,23.96,7.05l25.83,18.32c.94.47,3.76,3.76,0,3.76l-155.95,9.86ZM55.48,248.06V85.54c0-7.05,2.35-10.33,8.92-10.8l177.09-10.33c6.11-.47,8.92,3.29,8.92,10.33v161.59c0,7.05-.94,13.15-10.8,13.62l-169.57,9.86c-9.86.47-14.56-3.2-14.56-11.74ZM222.7,93.99c.94,5.17,0,9.86-5.17,10.33l-7.99,1.41v120.25c-7.05,3.76-13.62,6.11-19.26,6.11-8.92,0-10.8-2.82-17.38-10.8l-53.55-84.08v81.26l16.91,3.76s0,9.86-13.62,9.86l-37.58,2.35c-.94-2.35,0-7.52,3.76-8.92l9.86-2.82v-107.57l-13.62-.94c-.94-5.17,1.41-12.21,9.39-12.68l40.4-2.82,55.43,85.02v-75.16l-14.09-1.88c-.94-6.11,3.29-10.33,8.92-10.8l37.58-2.35h0v.47Z"/>
    </g>
  </g>
</svg>