<?xml version="1.0" encoding="UTF-8"?>
<svg id="_레이어_2" data-name="레이어 2" xmlns="http://www.w3.org/2000/svg" viewBox="0 0 137.06 154.97">
  <g id="_레이어_2-2" data-name=" 레이어 2">
    <path d="M137.05,55.5V6.48c0-3.58-3.62-6.48-8.1-6.48s-8.1,2.9-8.1,6.48v32.92h.01v57.86c0,6.97-8.04,11.5-14.81,11.5h-1.48s-77.5.01-77.5.01l16.88-16.88c3-3,3-7.87,0-10.88-3-3-7.87-3-10.88,0,0,0-30.21,30.09-30.71,30.9-.96,1.39-2.41,3.02-2.35,4.64,0,.11-.01.21-.01.32s0,.21.01.32c-.06,1.6,1.38,3.2,2.31,4.58.52.85,30.75,30.95,30.75,30.95,3,3,7.87,3,10.88,0,3-3,3-7.87,0-10.88l-16.87-16.87s57.35,0,78.33,0h0c1.36,0,2.62,0,3.74,0,12.77,0,27.91-4.09,27.91-22.18s-.01-47.27-.01-47.27Z"/>
  </g>
</svg>