<?xml version="1.0" encoding="UTF-8"?>
<svg id="_레이어_1" data-name="레이어_1" xmlns="http://www.w3.org/2000/svg" version="1.1" viewBox="0 0 200 200">
  <!-- Generator: Adobe Illustrator 29.4.0, SVG Export Plug-In . SVG Version: 2.1.0 Build 152)  -->
  <path d="M117.4,6.9c4,.5,8.6,3.9,10.5,7.4,4,7.4.5,20.2,10.9,23.1,8.7,2.5,16.2-7.7,26.8-3.6s6,4.4,8.3,8c5.3,8.4,9.8,17.4,14.9,26,2,4.8,1.4,10-1.6,14.2s-14.8,9.2-14.2,17.9,19,12.2,16.9,27.8c-.3,1.9-1.2,3.6-2,5.2-3.7,7.5-9.4,16.9-13.9,24.1-1.5,2.4-3.1,5.1-5.6,6.7-11.7,7.4-20.3-5.4-30-2.1s-6.8,13.9-9.4,21-7,9-12.7,9.4c-8.7.7-23.2.6-31.9,0-6.5-.5-11.7-4.5-13.5-10.8s-.5-17.4-9.8-19.8c-8.9-2.3-16.3,8.1-27,3.5-4-1.7-5.6-4.3-7.8-7.8-4.5-7.2-10.2-16.5-13.9-24.1s-2.9-7.2-1.6-11.8c2.8-10.1,19.6-12.5,15.9-24.8-1.9-6.1-10-9.2-13.7-14.2s-3.6-9.4-1.6-14.2c3-7.2,10.6-19.1,14.9-26,2.3-3.7,4-6.4,8.3-8,10.6-4.1,18.1,6.1,26.8,3.6,10.3-3,6.8-15.6,10.7-22.9s6.3-6.5,10.7-7.6c10.9,1,24.2-1.3,34.8,0ZM160.5,151.4l14.9-26.1c-5.6-4.9-11.9-8.7-14.9-15.9s-2.6-15.3,1.1-22.2c3.2-5.9,8.9-9.4,13.8-13.7l-14.9-26.1c-5.9,1.4-11.3,4.8-17.5,5-9.1.3-18.4-4.8-22.9-12.5-3.4-5.8-3.5-12.1-4.8-18.5l-30.4.2c-1.2,6.1-1.4,12.3-4.5,17.8-4.4,7.9-13.7,13.2-22.8,13s-11.8-3.6-17.9-5l-14.9,26.1c5.6,4.9,11.9,8.7,14.9,15.9,3,7.2,2.6,15.3-1.1,22.2s-8.9,9.4-13.8,13.7l14.9,26.1c5.9-1.4,11.3-4.8,17.5-5,9.1-.3,18.4,4.8,22.9,12.5,3.4,5.8,3.5,12.1,4.8,18.5l30.4-.2c1.2-6.1,1.4-12.3,4.5-17.8,4.4-7.9,13.7-13.2,22.8-13s11.8,3.6,17.9,5Z"/>
  <path d="M135.8,97.5c1.5,25.8-24.8,44.5-48.9,35-24.6-9.7-30.5-42.1-10.8-59.7,22.4-20,57.9-5.1,59.7,24.7ZM121.3,98.3c-.8-16.8-20.9-26.1-34.3-15.6-10.7,8.4-11.1,24.3-.6,33,14.2,11.9,35.8.9,34.9-17.4Z"/>
</svg>