<?xml version="1.0" encoding="UTF-8"?>
<svg id="_레이어_1" xmlns="http://www.w3.org/2000/svg" version="1.1" viewBox="0 0 200 200">
  <!-- Generator: Adobe Illustrator 29.4.0, SVG Export Plug-In . SVG Version: 2.1.0 Build 152)  -->
  <path d="M80.8,63.6h45.4l10.8-47.1c3.6-10.2,18.9-7.3,18.2,3.4l-10,43.7h38.7c1.5,0,5,2.1,6.1,3.3,5.3,6.3.6,14.7-7.3,15.1h-41.7l-7.8,35.1h32.2c1.2,0,4.7,1.7,5.7,2.7,6.2,6,1.4,15.6-7,15.7h-35.2l-10.7,46.7c-5,12.4-22.1,6-17.7-6.7l9.4-40.1h-45.1l-.6.7-10.7,46.5c-4,9.8-17.8,7.3-18.4-3.1l10-44.1H15.8c-1.5,0-5-2.1-6.1-3.3-5.3-6.2-.7-14.8,7.3-15.1h32.1c0,0,8.3-35.1,8.3-35.1H24.9c-.2,0-2.1-.7-2.5-.9-9.3-4-6.2-17.2,3.8-17.5h35.6l10.7-47.1c4.2-10.7,19.7-6.6,18.2,4.6l-9.8,42.5h0ZM121.9,82h-45.4l-7.8,35.1h45.4l7.8-35.1Z"/>
</svg>