<?xml version="1.0" encoding="UTF-8"?>
<svg id="_레이어_1" data-name="레이어_1" xmlns="http://www.w3.org/2000/svg" version="1.1" viewBox="0 0 200 200">
  <!-- Generator: Adobe Illustrator 29.4.0, SVG Export Plug-In . SVG Version: 2.1.0 Build 152)  -->
  <path d="M21.9,12.4c-5.3,0-9.5,4.3-9.5,9.5h0v29.5c0,4.7,3.4,9,8.1,9.6s10.9-3.7,10.9-9.4v-20.4s0,0,0,0h59.2s0,0,0,0v137.4s0,0,0,0h-20.3c-4.7,0-9,3.4-9.6,8.1s3.7,10.9,9.4,10.9h59.7c4.7,0,9-3.4,9.6-8.1.8-5.8-3.7-10.9-9.4-10.9h-20.5s0,0,0,0V31.3s0,0,0,0h59.2s0,0,0,0v20.4c0,5.2,4.2,9.5,9.5,9.5h0c5.2,0,9.5-4.2,9.5-9.5v-20.4s0-9.4,0-9.4h0c0-5.3-4.3-9.5-9.5-9.5H21.9Z"/>
</svg>