<?xml version="1.0" encoding="UTF-8"?>
<svg id="_레이어_2" data-name="레이어 2" xmlns="http://www.w3.org/2000/svg" viewBox="0 0 427.92 62.5">
  <g id="_레이어_1-2" data-name="레이어 1">
    <g>
      <path d="M37.59,14.83h-6.26c-.64-4.92-5.1-8.69-12.34-8.69s-11.41,3.01-11.41,7.18c0,4.81,4.29,6.89,14.19,8.98,11.41,2.43,15.99,6.83,15.99,13.73,0,8.34-8.17,13.44-18.48,13.44-10.83,0-18.65-5.91-19.29-14.89h6.26c.64,5.62,5.68,9.62,13.44,9.62,6.95,0,11.87-3.19,11.87-7.82,0-5.16-4.23-7.24-14.31-9.38C6.78,24.79,1.45,21.03,1.45,13.32S9.04.93,19.29.93s17.72,5.79,18.3,13.9Z"/>
      <path d="M52.14,3.94c0,2.26-1.68,3.94-4,3.94s-3.94-1.68-3.94-3.94,1.68-3.94,3.94-3.94,4,1.68,4,3.94ZM45.18,48.48V15.29h5.97v33.19h-5.97Z"/>
      <path d="M66.5,15.29v4.69c1.51-2.43,4.46-5.5,10.02-5.5,4.92,0,8.69,2.72,10.31,6.95,1.97-4.17,6.14-6.95,11.76-6.95,7.07,0,12.16,5.39,12.16,13.78v20.16h-5.97v-19.17c0-5.96-2.9-9.56-7.59-9.56-4.98,0-8.57,4.87-8.57,10.89v17.84h-5.97v-18.94c0-6.2-2.95-9.79-7.59-9.79-4.92,0-8.57,4.87-8.57,10.83v17.9h-5.97V15.29h5.97Z"/>
      <path d="M125.24,43.5v19h-5.97V15.29h5.97v4.92c1.68-2.84,5.73-5.73,11.76-5.73,9.38,0,16.39,7.47,16.39,17.38s-7.01,17.38-16.39,17.38c-6.02,0-10.08-2.9-11.76-5.73ZM147.54,31.86c0-6.89-4.4-12.11-11.06-12.11s-11.35,5.21-11.35,12.11,4.63,12.11,11.35,12.11,11.06-5.21,11.06-12.11Z"/>
      <path d="M161.04,48.42V.58h5.97v47.84h-5.97Z"/>
      <path d="M174.66,31.86c0-9.96,6.95-17.38,16.62-17.38s16.57,7.41,16.57,17.38c0,.75,0,1.62-.12,2.43h-27.11c.64,5.68,4.75,9.9,10.66,9.9,4.52,0,8.05-2.08,9.27-4.81h6.08c-1.8,5.73-7.76,9.85-15.35,9.85-9.67,0-16.62-7.41-16.62-17.38ZM191.28,19.52c-5.97,0-10.02,4.17-10.66,9.9h21.37c-.7-5.79-4.75-9.9-10.72-9.9Z"/>
      <path d="M267.34,14.83h-6.26c-.64-4.92-5.1-8.69-12.34-8.69s-11.41,3.01-11.41,7.18c0,4.81,4.29,6.89,14.19,8.98,11.41,2.43,15.99,6.83,15.99,13.73,0,8.34-8.17,13.44-18.48,13.44-10.83,0-18.65-5.91-19.29-14.89h6.26c.64,5.62,5.68,9.62,13.44,9.62,6.95,0,11.87-3.19,11.87-7.82,0-5.16-4.23-7.24-14.31-9.38-10.48-2.2-15.81-5.97-15.81-13.67s7.59-12.4,17.84-12.4,17.72,5.79,18.3,13.9Z"/>
      <path d="M307.08,31.86c0,9.96-7.12,17.38-16.91,17.38s-16.97-7.41-16.97-17.38,7.12-17.38,16.97-17.38,16.91,7.41,16.91,17.38ZM279.04,31.86c0,6.89,4.52,12.11,11.12,12.11s11.06-5.21,11.06-12.11-4.52-12.11-11.06-12.11-11.12,5.21-11.12,12.11Z"/>
      <path d="M320.69,15.29v5.1c1.45-2.49,5.45-5.91,11.93-5.91,2.03,0,3.36.17,4.52.58v5.68c-1.27-.58-2.9-.93-4.92-.93-6.78,0-11.53,5.44-11.53,11.47v17.15h-5.97V15.29h5.97Z"/>
      <path d="M361.42,20.56h-7.36v27.86h-5.97v-27.86h-7.36v-5.27h7.36V5.21h5.97v10.08h7.36v5.27Z"/>
      <path d="M364.72,31.86c0-9.96,6.95-17.38,16.62-17.38s16.57,7.41,16.57,17.38c0,.75,0,1.62-.12,2.43h-27.11c.64,5.68,4.75,9.9,10.66,9.9,4.52,0,8.05-2.08,9.27-4.81h6.08c-1.79,5.73-7.76,9.85-15.35,9.85-9.67,0-16.62-7.41-16.62-17.38ZM381.34,19.52c-5.97,0-10.02,4.17-10.66,9.9h21.37c-.69-5.79-4.75-9.9-10.71-9.9Z"/>
      <path d="M411.47,15.29v5.1c1.45-2.49,5.44-5.91,11.93-5.91,2.03,0,3.36.17,4.52.58v5.68c-1.27-.58-2.9-.93-4.92-.93-6.78,0-11.53,5.44-11.53,11.47v17.15h-5.97V15.29h5.97Z"/>
    </g>
  </g>
</svg>