<?xml version="1.0" encoding="utf-8" ?><svg xmlns="http://www.w3.org/2000/svg" xmlns:xlink="http://www.w3.org/1999/xlink" width="200" height="200" viewBox="0 0 200 200"><path transform="scale(0.390625 0.390625)" d="M233.062 103.135C252.497 71.2467 281.083 57.3151 316.819 54.2505C355.266 51.7368 393.044 74.8852 412.192 107.548C435.768 147.763 430.381 199.27 397.63 232.974C394.123 236.584 390.217 239.558 386.409 242.814C439.63 267.372 478.393 321.225 479.894 380.571C480.624 409.421 466.95 420.518 439.173 420.508L373.95 420.5C365.669 420.501 357.359 420.336 349.081 420.499C346.294 450.475 331.085 457.242 303.083 457.237L185.375 457.23L79.1611 457.234C71.8681 457.241 63.7504 457.875 56.6673 456.026C24.2594 447.567 29.6779 412.413 36.3251 387.832C47.5447 346.341 75.3724 310.25 112.612 288.809C116.633 286.494 120.852 284.536 124.877 282.224C111.771 271.148 99.912 256.311 93.4739 240.311C57.3877 150.632 146.956 66.1667 233.062 103.135ZM316.819 91.0002C294.55 92.6438 274.726 104.426 262.599 123.029C292.289 149.852 300.119 185.142 294.068 222.943C304.179 226.973 322.318 230.522 333.31 227.386C391.571 219.024 412.014 140.946 362.123 104.277C350.15 95.4767 331.668 89.67 316.819 91.0002ZM185.364 130.896C146.935 133.772 118.12 167.267 121.016 205.694C123.912 244.122 157.42 272.92 195.846 270.005C234.245 267.092 263.019 233.612 260.125 195.212C257.231 156.811 223.766 128.021 185.364 130.896ZM318.636 264.642C300.013 265.153 273.208 271.511 257.84 283.063C301.446 303.309 329.667 338.948 343.493 384.255L382.875 384.255L443.745 384.255C444.302 319.423 385.557 265.173 321.777 264.646L318.636 264.642ZM183.375 305C174.792 305.959 166.428 307.149 158.083 309.451C113.458 321.764 79.5911 360.141 70.1332 405.075C69.1286 409.848 68.0961 415.124 68.2381 420L197.625 420L302.357 419.984C305.715 419.978 309.55 419.565 312.843 420C306.664 353.722 250.974 300.681 183.375 305Z"/></svg>