<?xml version="1.0" encoding="UTF-8"?>
<svg id="_레이어_1" data-name="레이어_1" xmlns="http://www.w3.org/2000/svg" version="1.1" viewBox="0 0 200 200">
  <!-- Generator: Adobe Illustrator 29.4.0, SVG Export Plug-In . SVG Version: 2.1.0 Build 152)  -->
  <path d="M147.2,140.3v7.8c0,6.7,0,11.9-4.1,17.6-5.6,7.6-12,8.6-20.5,8.6H50.5c-1.8,0-3.7,0-5.6-.1-9.1-1.1-16.7-8.6-17.9-17.7-.4-2.7-.2-5.5-.2-8.2V48.3c0-6.5,0-11.1,4.2-16.6,3.9-5.1,8.9-7.3,15.1-8.1.9,0,1.8,0,2.7,0h71.8c2.1,0,4.3,0,6.4,0,9.7.3,17.8,7.2,19.9,16.6.6,2.9.4,6,.4,8.9v18.1c0,2.1,0,4.1,0,6.2h0c5.1-5.6,11.2-12.7,18.9-13,7.3-.3,10.5,3.3,15.2,7.9,8.5,8.4,9,15.5.4,24.1l-21.5,21.7c-4.2,4.2-8.5,8.4-12.6,12.7-.3.3-.5.7-.5,1.1,0,1,0,2.1,0,3.1v9.4ZM47.8,35.3c0,0-.1,0-.2,0-9.6,1.1-9.2,8.4-9.2,16v96.8c0,2.1,0,4.3.2,6.3.9,7.7,7.6,8.2,13.5,8.2h70.2c12.4,0,13-5,13-15.3v-5.6c0-1.2-1.2-2-2.3-1.6-7,2.6-23.2,3.3-26,1.8s-2.2-2-2.7-3.2c-1.5-3.5-.4-21.4,2.8-24.7,2.4-2.6,5.1-5.1,7.6-7.6l17.7-17.8c.8-.8,1.6-1.7,2.4-2.4s.6-.8.6-1.3c.1-9.3,0-18.5,0-27.8v-8.7c0-6.3-1.1-12.9-9.5-13H57.2c-3.1,0-6.3-.1-9.4,0ZM166.5,72.3c-2.3.4-6.1,5.1-7.8,6.8l-39,39.1c-.6.6-1.3,1.3-1.9,1.9s-.3.5-.4.8c-.5,2.7-.8,5.4-1.3,8.1s.8,2.2,1.9,2c2-.3,7.9-1,8.6-1.2s1.3-.5,1.8-.9c.7-.6,1.4-1.6,3.1-3.3l39.2-39.6c2-2,6.3-4.6,4.1-7.4-1.2-1.6-5.9-6.9-8.3-6.5Z"/>
  <path d="M106.6,76.6h-42.8c-1.8,0-3.7.1-5.5,0-4.7-.6-6.4-6.8-3.2-10.1,1.9-1.9,4.4-1.6,6.9-1.6h5.7s42.7,0,42.7,0c2.8,0,6.4-.6,8.6,1.6,2.3,2.3,2.3,6.1,0,8.4-2.1,2.1-4.7,1.7-7.3,1.7h-5Z"/>
  <path d="M93.9,104.2c-1.1.2-2.4,0-3.5,0h-24.2c-4.4,0-11.8,1.4-12.7-4.7-.6-3.5,1-6.5,4.7-7,1.4-.1,3.1,0,4.5,0h23.2c2.1,0,7.6-.5,9.4.5,5.1,2.8,4.1,9.8-1.4,11.2Z"/>
  <path d="M62.7,133.2c-2.6,0-5.6.4-7.7-1.5-3.2-3-2.1-9.2,2.4-10.2,2.1-.5,5.3-.2,7.4-.2h13.4c2.7,0,5.6-.5,7.7,1.5,2.4,2.3,2.5,6.6,0,9-2.3,2.2-6.7,1.4-9.5,1.4h-13.8Z"/>
</svg>